<svg width="40" height="40" viewBox="0 0 40 40" fill="none" xmlns="http://www.w3.org/2000/svg">
<path d="M14.1667 31.6666V35.3333C14.1667 35.8 14.1667 36.0333 14.0758 36.2116C13.9959 36.3684 13.8685 36.4959 13.7117 36.5758C13.5334 36.6666 13.3 36.6666 12.8333 36.6666H9.66667C9.19996 36.6666 8.9666 36.6666 8.78834 36.5758C8.63154 36.4959 8.50406 36.3684 8.42416 36.2116C8.33333 36.0333 8.33333 35.8 8.33333 35.3333V31.6666M31.6667 31.6666V35.3333C31.6667 35.8 31.6667 36.0333 31.5758 36.2116C31.4959 36.3684 31.3685 36.4959 31.2117 36.5758C31.0334 36.6666 30.8 36.6666 30.3333 36.6666H27.1667C26.7 36.6666 26.4666 36.6666 26.2883 36.5758C26.1315 36.4959 26.0041 36.3684 25.9242 36.2116C25.8333 36.0333 25.8333 35.8 25.8333 35.3333V31.6666M5 19.9999H35M5 9.16659H35M10.8333 25.8333H13.3333M26.6667 25.8333H29.1667M13 31.6666H27C29.8003 31.6666 31.2004 31.6666 32.27 31.1216C33.2108 30.6423 33.9757 29.8773 34.455 28.9365C35 27.867 35 26.4669 35 23.6666V11.3333C35 8.53299 35 7.13286 34.455 6.0633C33.9757 5.12249 33.2108 4.35759 32.27 3.87822C31.2004 3.33325 29.8003 3.33325 27 3.33325H13C10.1997 3.33325 8.79961 3.33325 7.73005 3.87822C6.78924 4.35759 6.02433 5.12249 5.54497 6.0633C5 7.13286 5 8.53299 5 11.3333V23.6666C5 26.4668 5 27.867 5.54497 28.9365C6.02433 29.8773 6.78924 30.6423 7.73005 31.1216C8.79961 31.6666 10.1997 31.6666 13 31.6666Z" stroke="white" stroke-width="2" stroke-linecap="round" stroke-linejoin="round"/>
</svg>
