<svg width="146" height="20" viewBox="0 0 146 20" fill="none" xmlns="http://www.w3.org/2000/svg">
<g clip-path="url(#clip0_7796_3629)">
<path d="M12.3275 3.48535H3.1294V6.11756C3.88982 5.62037 4.76722 5.35715 5.67387 5.35715H12.0058C12.269 5.35715 12.4591 5.54725 12.4591 5.81047C12.4591 6.07369 12.269 6.2638 12.0058 6.2638H5.76161C4.73797 6.2638 3.77283 6.65863 3.11478 7.36055C2.38361 8.04785 1.97415 9.013 1.97415 10.0074C1.97415 11.031 2.38361 12.0108 3.11478 12.6835C3.80208 13.3708 4.72335 13.751 5.71774 13.751H12.7662C13.0294 13.751 13.2195 13.9411 13.2195 14.2043C13.2195 14.4821 12.9856 14.6576 12.7662 14.6576H5.68849C4.78184 14.6576 3.88982 14.3944 3.14402 13.8972V16.5294H13.0879C14.3894 16.5294 15.4131 15.5058 15.4131 14.2043C15.4131 12.9174 14.3748 11.8792 13.0879 11.8792H6.02483C4.98657 11.8792 4.15304 11.031 4.15304 10.0074C4.15304 8.96913 5.00119 8.13559 6.02483 8.13559H12.3275C13.629 8.13559 14.6526 7.11195 14.6526 5.81047C14.6526 5.19629 14.404 4.61135 13.9653 4.17265C13.512 3.71933 12.9417 3.48535 12.3275 3.48535Z" fill="white"/>
<path d="M17.9137 5.76653C17.9137 3.03195 15.7348 0.589844 12.6931 0.589844H-0.0585022V19.4248H13.4535C16.3343 19.4248 18.6594 17.0997 18.6594 14.2189C18.6594 12.3032 17.5334 10.5045 15.6617 9.71484C16.8608 8.88131 17.9137 7.49209 17.9137 5.76653ZM15.6617 5.8104C15.6617 7.60907 14.1993 9.07141 12.4006 9.07141H5.95171C5.4399 9.07141 5.01582 9.49549 5.01582 10.0073C5.01582 10.5191 5.4399 10.9432 5.95171 10.9432H13.1464C14.9451 10.9432 16.4074 12.4055 16.4074 14.2042C16.4074 16.0029 14.9451 17.4652 13.1464 17.4652H2.07651V12.9612C1.41846 12.1423 1.02363 11.0309 1.02363 10.0073C1.02363 8.9398 1.40384 7.88692 2.07651 7.09726V2.53476H12.386C13.3073 2.53476 14.1408 2.90034 14.755 3.54377C15.3399 4.15795 15.6617 4.97686 15.6617 5.8104Z" fill="white"/>
<path d="M84.6402 11.5428C84.9912 11.9962 85.1667 12.5226 85.1667 13.1075C85.1667 13.9557 84.8742 14.6138 84.2893 15.111C83.7043 15.6081 82.8854 15.8567 81.8325 15.8567H77.1384V5.7666H81.6717C82.6953 5.7666 83.4996 6.00058 84.0699 6.46852C84.6549 6.93647 84.9327 7.5799 84.9327 8.38419C84.9327 8.98375 84.7718 9.46632 84.4647 9.86115C84.1577 10.256 83.7336 10.5192 83.2218 10.6801C83.8213 10.797 84.2893 11.0895 84.6402 11.5428ZM79.5952 9.84653H81.2037C81.5986 9.84653 81.9203 9.75879 82.125 9.58331C82.3444 9.40783 82.4467 9.14461 82.4467 8.79364C82.4467 8.44268 82.3444 8.17946 82.125 8.00398C81.9057 7.8285 81.5986 7.72614 81.2037 7.72614H79.5952V9.84653ZM82.359 13.5755C82.5783 13.3854 82.6953 13.1222 82.6953 12.7712C82.6953 12.4202 82.5783 12.1424 82.3444 11.9377C82.1104 11.7329 81.7887 11.6306 81.3792 11.6306H79.5952V13.8533H81.4085C81.8179 13.8533 82.125 13.7656 82.359 13.5755Z" fill="white"/>
<path d="M38.7666 7.6236V9.67087H42.0569V11.5573H38.7666V13.78H42.4809V15.7396H36.3099V5.66406H42.4809V7.6236H38.7666Z" fill="white"/>
<path d="M89.4805 5.7666H87.0238V15.8421H89.4805V5.7666Z" fill="white"/>
<path d="M58.9031 15.7396L55.5104 11.2941V15.7396H53.0537V5.66406H55.5104V10.0803L58.8738 5.66406H61.7546L57.8502 10.6068L61.9009 15.7396H58.9031Z" fill="white"/>
<path d="M112.366 13.9411H115.583V15.8421H109.909V5.7666H112.366V13.9411Z" fill="white"/>
<path d="M108.432 5.7666V7.72614H105.771V15.8421H103.314V7.72614H100.638V5.7666H108.432Z" fill="white"/>
<path d="M71.3329 5.66406L67.8379 12.4054V15.7396H65.3958V12.4054L61.9008 5.66406H64.6793L66.6388 9.89022L68.5691 5.66406H71.3329Z" fill="white"/>
<path d="M68.7007 3.47074L65.1034 4.97695V3.22214L68.7007 1.49658V3.47074Z" fill="white"/>
<path d="M32.1569 3.5292L29.8464 4.69907L27.5212 3.5292V1.75977L29.8464 3.06125L32.1569 1.75977V3.5292Z" fill="white"/>
<path d="M121.009 5.66406C118.172 5.66406 115.876 7.95994 115.876 10.7969C115.876 13.6338 118.172 15.9297 121.009 15.9297C123.846 15.9297 126.141 13.6338 126.141 10.7969C126.141 7.97456 123.846 5.66406 121.009 5.66406ZM121.009 13.6923C119.502 13.6923 118.274 12.3908 118.274 10.7969C118.274 9.20292 119.502 7.90144 121.009 7.90144C122.515 7.90144 123.743 9.20292 123.743 10.7969C123.743 12.4054 122.529 13.6923 121.009 13.6923Z" fill="white"/>
<path d="M133.629 15.842V9.81713C133.629 9.21757 133.482 8.74962 133.19 8.42791C132.897 8.10619 132.459 7.94534 131.888 7.94534C131.318 7.94534 130.879 8.10619 130.572 8.42791C130.265 8.74962 130.119 9.21757 130.119 9.81713V15.842H127.662V9.83176C127.662 8.92511 127.852 8.16469 128.233 7.55051C128.613 6.9217 129.125 6.45375 129.783 6.14666C130.426 5.82495 131.143 5.67871 131.947 5.67871C132.737 5.67871 133.453 5.83957 134.082 6.14666C134.711 6.45375 135.208 6.9217 135.573 7.55051C135.939 8.17931 136.115 8.93973 136.115 9.84638V15.8566H133.629V15.842Z" fill="white"/>
<path d="M29.9633 13.5903C28.4571 13.5318 27.2288 12.2888 27.2288 10.6948C27.2288 9.10087 28.4571 7.82864 29.9633 7.79939C31.2648 7.77014 31.7474 8.31121 32.2446 9.08625H34.8476C34.1749 7.03897 32.2446 5.56201 29.978 5.56201C27.141 5.56201 24.8452 7.85788 24.8452 10.6948C24.8452 13.5318 27.141 15.8276 29.978 15.8276C32.2446 15.8276 34.1749 14.3507 34.8476 12.3034H32.2446C31.7474 13.0931 31.1771 13.6341 29.9633 13.5903Z" fill="white"/>
<path d="M99.5122 7.53586C99.1466 6.90705 98.6494 6.4391 98.0206 6.13201C97.3918 5.82492 96.6899 5.66406 95.8856 5.66406C95.0959 5.66406 94.3648 5.82492 93.7213 6.13201C93.0779 6.45373 92.5661 6.92167 92.1713 7.53586C91.7911 8.16466 91.601 8.92508 91.601 9.81711V15.8273H94.0577V13.1074H97.5819V15.8419H100.039V9.83173C100.068 8.92508 99.8778 8.16466 99.5122 7.53586ZM94.0723 11.1917V9.80248C94.0723 9.20292 94.2185 8.73498 94.5256 8.41326C94.8327 8.09155 95.2714 7.93069 95.8417 7.93069C96.412 7.93069 96.8507 8.09155 97.1432 8.41326C97.4357 8.73498 97.5819 9.20292 97.5819 9.80248V11.1917H94.0723Z" fill="white"/>
<path d="M48.3303 11.645H46.8095C45.5519 11.645 44.4697 10.8554 44.031 9.75861C43.8994 9.42228 43.8263 9.04207 43.8263 8.66186C43.8263 7.00941 45.1716 5.66406 46.8241 5.66406H50.8894V7.55048H47.2335C46.6194 7.55048 46.1368 8.04768 46.1368 8.64723C46.1368 9.26142 46.634 9.74399 47.2335 9.74399H48.7544C50.012 9.74399 51.0941 10.5337 51.5328 11.6304C51.6644 11.9667 51.7375 12.347 51.7375 12.7272C51.7375 14.3796 50.3922 15.725 48.7398 15.725H44.3966V13.8532H48.3303C48.9445 13.8532 49.4271 13.356 49.4271 12.7564C49.4271 12.1422 48.9299 11.645 48.3303 11.645Z" fill="white"/>
</g>
<defs>
<clipPath id="clip0_7796_3629">
<rect width="146" height="18.8203" fill="white" transform="translate(0 0.589844)"/>
</clipPath>
</defs>
</svg>
