<svg width="150" height="60" viewBox="0 0 150 60" fill="none" xmlns="http://www.w3.org/2000/svg">
<path d="M138.78 59.2958H0.646423L10.9132 0.70459H149.181L138.78 59.2958Z" fill="white"/>
<path d="M138.78 59.2958H70.9299L81.1989 0.70459H149.181L138.78 59.2958Z" fill="url(#paint0_linear_7654_220)"/>
<g style="mix-blend-mode:darken">
<path d="M149.181 0.70459H81.1989L70.9299 59.2958H138.921L149.181 0.70459Z" fill="url(#paint1_linear_7654_220)"/>
</g>
<path d="M14.4432 38.9075C10.9478 38.9075 8.11273 41.7909 8.11273 45.3459C8.11273 48.9008 10.9478 51.7842 14.4432 51.7842C17.9385 51.7842 20.7736 48.9008 20.7736 45.3459C20.7736 41.7909 17.9385 38.9075 14.4432 38.9075ZM20.3603 45.3459C20.3603 48.6707 17.71 51.3639 14.4432 51.3639C11.1764 51.3639 8.52599 48.6684 8.52599 45.3459C8.52599 42.0233 11.1764 39.3278 14.4432 39.3278C17.71 39.3278 20.3603 42.0233 20.3603 45.3459Z" fill="#1A171B"/>
<path d="M17.5114 42.615C17.5968 42.7089 17.7215 42.8615 17.7907 42.9531L19.0721 42.1266C19.0074 42.0421 18.9058 41.9129 18.8296 41.8213L18.017 42.3684L17.9616 42.4177L18.0031 42.3567L18.361 41.6288L18.107 41.3705L17.3913 41.7345L17.3313 41.7767L17.3798 41.7204L17.9177 40.8962C17.8231 40.814 17.733 40.7389 17.6176 40.6497L16.8026 41.9528C16.9065 42.0327 17.0427 42.1524 17.1281 42.2323L17.8946 41.8284L17.9431 41.7908L17.9062 41.8401L17.5091 42.6197L17.5114 42.615Z" fill="#1A171B"/>
<path d="M14.6024 40.9643L14.9533 40.166L14.9764 40.0955L14.9695 40.1683L15.0064 41.2343C15.1288 41.2461 15.2558 41.2625 15.3805 41.2836L15.3227 39.7034C15.1473 39.6846 14.9741 39.6705 14.7987 39.6611L14.4547 40.5323L14.4431 40.598L14.4316 40.5323L14.0876 39.6611C13.9144 39.6682 13.739 39.6823 13.5635 39.7034L13.5058 41.2836C13.6305 41.2625 13.7574 41.2461 13.8798 41.2343L13.9167 40.1683L13.9098 40.0955L13.9329 40.166L14.2838 40.9643H14.6024Z" fill="#1A171B"/>
<path d="M11.7697 42.2228C11.9729 42.0068 12.086 41.7555 11.8852 41.516C11.7744 41.3869 11.5897 41.3587 11.4373 41.4221L11.4211 41.4291L11.4257 41.415C11.4488 41.354 11.4627 41.1568 11.2988 41.0206C11.218 40.9548 11.1187 40.929 11.0148 40.9407C10.8255 40.9595 10.6777 41.0934 10.2806 41.5442C10.1606 41.6804 9.98512 41.8964 9.88123 42.0349L10.9755 43.0892C11.338 42.6806 11.4858 42.528 11.772 42.2228H11.7697ZM10.343 41.9645C10.5623 41.6898 10.7978 41.4409 10.904 41.3423C10.9386 41.3117 10.9732 41.2812 11.0171 41.2671C11.0887 41.246 11.1625 41.3 11.1787 41.3728C11.1949 41.4456 11.1487 41.5184 11.0979 41.5794C10.9825 41.7132 10.5554 42.1664 10.5554 42.1664L10.343 41.9621V41.9645ZM10.7701 42.3777C10.7701 42.3777 11.1856 41.9316 11.3218 41.7884C11.3749 41.732 11.4096 41.6968 11.4488 41.678C11.4973 41.6545 11.5481 41.6498 11.5966 41.6804C11.6428 41.7109 11.6635 41.7672 11.652 41.8189C11.6381 41.8823 11.5873 41.9434 11.5435 41.9903C11.4858 42.0537 10.9917 42.5891 10.9917 42.5914L10.7701 42.3777Z" fill="#1A171B"/>
<path d="M14.4431 41.5278V45.3458H10.6892C10.6892 43.2349 12.3676 41.5278 14.4431 41.5278Z" fill="#0068B1"/>
<path d="M18.1971 45.3457C18.1971 47.4566 16.5187 49.1637 14.4432 49.1637V45.3457H18.1971Z" fill="#0068B1"/>
<path d="M18.1971 45.3458H14.4432V41.5278C16.5187 41.5278 18.1971 43.2349 18.1971 45.3458Z" fill="white"/>
<path d="M10.6892 45.3457H14.4431V49.1637C12.3676 49.1637 10.6892 47.4566 10.6892 45.3457Z" fill="white"/>
<path d="M14.4431 41.5278V41.7368C16.3986 41.7368 17.9916 43.3546 17.9916 45.3458H18.1971C18.1971 43.2372 16.5163 41.5278 14.4431 41.5278ZM14.4431 48.9547C12.4877 48.9547 10.8947 47.3369 10.8947 45.3458H10.6892C10.6892 47.4543 12.3699 49.1637 14.4431 49.1637" fill="#1A171B"/>
<path d="M21.9625 53.7611H21.3969L24.2135 36.9302H24.7815L21.9625 53.7611Z" fill="#00384D"/>
<path d="M25.6611 50.3164C25.7788 50.3164 25.8943 50.3305 26.012 50.354C26.1274 50.3798 26.2336 50.4221 26.326 50.4831C26.4207 50.5442 26.4945 50.6193 26.5522 50.7156C26.61 50.8118 26.6377 50.9293 26.6377 51.0678C26.6377 51.2979 26.5707 51.4881 26.4345 51.6384C26.2983 51.7886 26.1205 51.892 25.8989 51.946V51.9554C26.0836 51.9835 26.2336 52.0634 26.3514 52.1902C26.4691 52.317 26.5269 52.4837 26.5269 52.6879C26.5269 52.8617 26.4899 53.0167 26.4207 53.1482C26.3491 53.2797 26.2498 53.3924 26.1228 53.4792C25.9959 53.5685 25.8435 53.6342 25.668 53.6812C25.4926 53.7258 25.2986 53.7493 25.0885 53.7493H23.8926L24.4883 50.3164H25.6611ZM24.7215 52.2277L24.5506 53.2468H25.137C25.2409 53.2468 25.3425 53.2374 25.4372 53.2163C25.5318 53.1951 25.6172 53.1623 25.6911 53.1176C25.765 53.073 25.825 53.012 25.8666 52.9368C25.9104 52.8617 25.9312 52.7701 25.9312 52.6621C25.9312 52.5259 25.8827 52.4203 25.7835 52.3451C25.6842 52.27 25.5434 52.2324 25.3587 52.2324H24.7192L24.7215 52.2277ZM24.9731 50.8118L24.8115 51.7276H25.421C25.4879 51.7276 25.5572 51.7182 25.6334 51.7018C25.7073 51.683 25.7765 51.6548 25.8389 51.6125C25.9012 51.5703 25.952 51.5163 25.9912 51.4482C26.0305 51.3801 26.0513 51.2979 26.0513 51.2016C26.0513 51.0584 26.0005 50.9598 25.8966 50.9011C25.7927 50.8424 25.6634 50.8142 25.5087 50.8142H24.9754L24.9731 50.8118Z" fill="#00384D"/>
<path d="M26.9678 53.7493L27.5634 50.3164H28.1498L27.5542 53.7493H26.9678Z" fill="#00384D"/>
<path d="M30.5809 53.7493L30.4424 52.958H28.9971L28.5146 53.7493H27.8197L30.0222 50.3164H30.5324L31.2042 53.7493H30.5786H30.5809ZM30.1376 51.0044L29.2834 52.4438H30.3616L30.1376 51.0044Z" fill="#00384D"/>
<path d="M32.945 50.84L32.4394 53.7493H31.853L32.354 50.84H31.352L31.442 50.3164H34.0255L33.9354 50.84H32.945Z" fill="#00384D"/>
<path d="M35.9278 53.7493L36.191 52.223H34.6465L34.3787 53.7493H33.7923L34.3879 50.3164H34.9743L34.7319 51.7088H36.2811L36.5235 50.3164H37.1099L36.5142 53.7493H35.9278Z" fill="#00384D"/>
<path d="M37.2692 53.7493L37.8648 50.3164H38.4512L37.9456 53.2163H39.3909L39.3008 53.7493H37.2692Z" fill="#00384D"/>
<path d="M41.5726 50.2295C41.815 50.2295 42.032 50.2647 42.2282 50.3328C42.4245 50.4032 42.5907 50.5019 42.7315 50.6287C42.8724 50.7555 42.9786 50.9128 43.0548 51.0959C43.1309 51.2791 43.1679 51.4881 43.1679 51.7158C43.1679 52.007 43.1194 52.2817 43.0224 52.54C42.9255 52.7983 42.7916 53.0237 42.6184 53.2139C42.4476 53.4041 42.2444 53.5567 42.0089 53.6671C41.7734 53.7798 41.5172 53.8338 41.2378 53.8338C40.9908 53.8338 40.7668 53.8009 40.566 53.7328C40.3651 53.6647 40.1943 53.5661 40.0535 53.4369C39.9126 53.3078 39.8041 53.1505 39.7279 52.9673C39.6517 52.7842 39.6148 52.5752 39.6148 52.3474C39.6148 52.0563 39.6656 51.7816 39.7649 51.5233C39.8641 51.265 40.0027 51.0396 40.1781 50.8494C40.3536 50.6592 40.5591 50.5066 40.7969 50.3962C41.0347 50.2835 41.2932 50.2295 41.5749 50.2295H41.5726ZM41.2378 53.3125C41.4502 53.3125 41.6395 53.2679 41.8034 53.181C41.9674 53.0941 42.1059 52.9767 42.219 52.8311C42.3321 52.6856 42.4176 52.5212 42.4776 52.3357C42.5353 52.1526 42.5653 51.9624 42.5653 51.7675C42.5653 51.6289 42.5422 51.4951 42.4984 51.3707C42.4545 51.2439 42.3899 51.1358 42.3021 51.0443C42.2167 50.9527 42.1105 50.8799 41.9835 50.8236C41.8565 50.7695 41.7111 50.7414 41.5449 50.7414C41.3417 50.7414 41.157 50.786 40.9931 50.8729C40.8292 50.9597 40.6907 51.0771 40.5752 51.2227C40.4598 51.3683 40.3721 51.5327 40.3097 51.7182C40.2474 51.9013 40.2174 52.0915 40.2174 52.2864C40.2174 52.4296 40.2405 52.5611 40.2843 52.6856C40.3282 52.81 40.3928 52.918 40.4806 53.0096C40.566 53.1012 40.6722 53.1763 40.7992 53.2303C40.9261 53.2867 41.0716 53.3125 41.2378 53.3125Z" fill="#00384D"/>
<path d="M45.6197 53.7493L44.5139 51.0819H44.5046L44.0429 53.7493H43.4565L44.0521 50.3164H44.814L45.9014 52.9016H45.9106L46.3585 50.3164H46.9449L46.3493 53.7493H45.6197Z" fill="#00384D"/>
<path d="M27.7182 49.0746C27.6304 49.1356 27.5288 49.1873 27.4157 49.2342C27.3026 49.2812 27.1779 49.3188 27.0371 49.3469C26.8963 49.3775 26.7416 49.3915 26.5707 49.3915C26.3145 49.3915 26.0836 49.3563 25.8827 49.2835C25.6819 49.2107 25.511 49.1098 25.3725 48.9736C25.2317 48.8398 25.1255 48.6777 25.0516 48.4875C24.9777 48.2974 24.9408 48.086 24.9408 47.8559C24.9408 47.5577 24.9916 47.2806 25.0932 47.0224C25.1948 46.7641 25.3356 46.5387 25.5203 46.3461C25.7027 46.1536 25.9197 46.0009 26.1713 45.8906C26.423 45.7802 26.6977 45.7239 26.9955 45.7239C27.2934 45.7239 27.5519 45.7708 27.7759 45.8648C27.9998 45.9587 28.173 46.0737 28.2907 46.2099L27.515 47.0247C27.4573 46.9402 27.3811 46.8768 27.2864 46.8369C27.1918 46.7969 27.0856 46.7758 26.9655 46.7758C26.8455 46.7758 26.7323 46.8016 26.6331 46.8509C26.5338 46.9026 26.4484 46.9707 26.3768 47.0576C26.3052 47.1445 26.2521 47.2454 26.2129 47.3581C26.1736 47.4732 26.1552 47.5953 26.1552 47.7268C26.1552 47.8958 26.2083 48.0414 26.3122 48.1588C26.416 48.2762 26.573 48.3349 26.7831 48.3349C26.9055 48.3349 27.0186 48.3091 27.1248 48.2574C27.231 48.2058 27.3234 48.1424 27.3996 48.0672L27.949 48.9008C27.8821 48.9595 27.8036 49.0182 27.7158 49.0793L27.7182 49.0746Z" fill="#00384D"/>
<path d="M30.223 49.2928L30.4539 47.9592H29.4796L29.2488 49.2928H28.136L28.7386 45.8201H29.8467L29.6389 47.0105H30.6132L30.821 45.8201H31.9407L31.3381 49.2928H30.2254H30.223Z" fill="#00384D"/>
<path d="M34.2656 49.2928L34.1894 48.7622H33.0812L32.7972 49.2928H31.5529L33.6515 45.8201H34.8289L35.4268 49.2928H34.2702H34.2656ZM33.9955 47.0035L33.5083 47.8958H34.097L33.9955 47.0035Z" fill="#00384D"/>
<path d="M38.8252 49.2928L39.2062 47.2829H39.1762L38.1696 49.2928H37.3846L37.0799 47.2829H37.0568L36.7636 49.2928H35.7224L36.3249 45.8201H37.7471L38.0472 47.722H38.0703L38.9568 45.8201H40.5152L39.9126 49.2928H38.8275H38.8252Z" fill="#00384D"/>
<path d="M41.6649 49.2928H40.5568L41.1593 45.8201H42.4314C42.8724 45.8201 43.2094 45.914 43.4426 46.0995C43.6758 46.285 43.7912 46.5433 43.7912 46.8697C43.7912 47.0927 43.7543 47.2853 43.6827 47.4473C43.6112 47.6116 43.505 47.7455 43.3664 47.8488C43.2279 47.9545 43.0617 48.0319 42.8654 48.0813C42.6692 48.1329 42.4453 48.1564 42.1959 48.1564H41.8681L41.6649 49.2882V49.2928ZM42.1913 47.3064C42.346 47.3064 42.466 47.2806 42.5538 47.2289C42.6415 47.1772 42.6831 47.0951 42.6831 46.9847C42.6831 46.879 42.6484 46.8086 42.5769 46.7687C42.5053 46.7288 42.4106 46.71 42.2883 46.71H42.1197L42.0135 47.3087H42.1913V47.3064Z" fill="#00384D"/>
<path d="M43.8351 49.2928L44.4377 45.8201H45.562L44.9594 49.2928H43.8351Z" fill="#00384D"/>
<path d="M47.4136 49.3822C47.1412 49.3822 46.8987 49.3446 46.6887 49.2671C46.4786 49.1897 46.3008 49.0816 46.1577 48.9408C46.0145 48.7999 45.906 48.6332 45.8321 48.4406C45.7583 48.2481 45.7213 48.0344 45.7213 47.8019C45.7213 47.5131 45.7721 47.2455 45.8714 46.9919C45.9707 46.7406 46.1115 46.5199 46.2916 46.3344C46.4716 46.1489 46.6887 46.001 46.9449 45.893C47.2012 45.785 47.4852 45.731 47.7968 45.731C48.0739 45.731 48.3163 45.7685 48.5264 45.846C48.7365 45.9235 48.9142 46.0315 49.0574 46.1724C49.2005 46.3133 49.309 46.48 49.3829 46.6725C49.4568 46.8651 49.4937 47.0787 49.4937 47.3112C49.4937 47.6 49.4452 47.8677 49.346 48.1213C49.249 48.3725 49.1082 48.5932 48.9258 48.7787C48.7434 48.9642 48.5264 49.1122 48.2701 49.2202C48.0138 49.3282 47.7299 49.3822 47.4136 49.3822ZM48.3301 47.3957C48.3301 47.3065 48.3163 47.2243 48.2886 47.1492C48.2609 47.0717 48.2216 47.006 48.1685 46.9473C48.1154 46.8909 48.0485 46.8463 47.97 46.8134C47.8915 46.7805 47.8014 46.7641 47.7022 46.7641C47.5775 46.7641 47.4644 46.7899 47.3628 46.8439C47.2612 46.8979 47.1758 46.9684 47.1042 47.0576C47.0327 47.1468 46.9796 47.2478 46.9403 47.3629C46.9011 47.4779 46.8826 47.593 46.8826 47.7104C46.8826 47.7996 46.8964 47.8818 46.9241 47.9569C46.9518 48.0344 46.9911 48.1002 47.0442 48.1589C47.0973 48.2152 47.1619 48.2622 47.2427 48.2927C47.3212 48.3256 47.4113 48.342 47.5152 48.342C47.6398 48.342 47.753 48.3162 47.8522 48.2645C47.9515 48.2129 48.0369 48.1424 48.1085 48.0532C48.1801 47.964 48.2332 47.863 48.2724 47.7479C48.3117 47.6329 48.3301 47.5155 48.3301 47.3957Z" fill="#00384D"/>
<path d="M51.6662 49.2928L50.992 47.5717H50.9736L50.7081 49.2928H49.623L50.2256 45.8201H51.3199L52.0102 47.6304H52.0286L52.308 45.8201H53.3931L52.7905 49.2928H51.6662Z" fill="#00384D"/>
<path d="M55.6833 46.8556C55.6279 46.7899 55.5586 46.7382 55.4709 46.6959C55.3831 46.656 55.2839 46.6349 55.1661 46.6349C55.0761 46.6349 54.9953 46.6537 54.9237 46.6936C54.8521 46.7335 54.8152 46.7946 54.8152 46.8744C54.8152 46.9401 54.8452 46.9894 54.9076 47.027C54.9676 47.0622 55.0576 47.0998 55.1777 47.1397C55.3254 47.189 55.457 47.2454 55.5725 47.3064C55.6879 47.3675 55.7849 47.4403 55.8657 47.5225C55.9465 47.6046 56.0065 47.6986 56.0504 47.8019C56.0942 47.9075 56.115 48.0249 56.115 48.1541C56.115 48.3771 56.0665 48.565 55.9719 48.7223C55.8749 48.8796 55.7525 49.0064 55.6048 49.105C55.457 49.2037 55.2908 49.2741 55.113 49.3211C54.9329 49.3657 54.7598 49.3892 54.589 49.3892C54.455 49.3892 54.3188 49.3774 54.1849 49.3539C54.051 49.3305 53.9194 49.2976 53.7971 49.2553C53.6724 49.2131 53.557 49.1614 53.4485 49.098C53.3399 49.037 53.2453 48.9665 53.1645 48.8867L53.9264 48.1705C53.9656 48.2175 54.0118 48.2574 54.0672 48.2926C54.1226 48.3278 54.178 48.3584 54.238 48.3842C54.2981 48.4077 54.3581 48.4288 54.4181 48.4429C54.4781 48.457 54.5359 48.464 54.5866 48.464C54.6998 48.464 54.7898 48.4452 54.8568 48.4077C54.9237 48.3701 54.9583 48.3161 54.9583 48.2433C54.9583 48.1846 54.9306 48.1329 54.8729 48.086C54.8152 48.039 54.7113 47.9921 54.5566 47.9428C54.4343 47.9028 54.3188 47.8582 54.2126 47.8066C54.1041 47.7549 54.0118 47.6915 53.9333 47.6187C53.8548 47.5459 53.7925 47.4567 53.7486 47.3534C53.7024 47.2501 53.6816 47.1256 53.6816 46.9777C53.6816 46.7969 53.7186 46.6302 53.7901 46.4776C53.8617 46.3249 53.9656 46.1911 54.0995 46.0784C54.2334 45.9657 54.3927 45.8765 54.5774 45.8131C54.7621 45.7497 54.9653 45.7168 55.1869 45.7168C55.3093 45.7168 55.4293 45.7285 55.5494 45.7497C55.6694 45.7708 55.7802 45.8013 55.8864 45.8389C55.9926 45.8765 56.0896 45.9211 56.1796 45.9727C56.2697 46.0244 56.3459 46.0831 56.4059 46.1488L55.6925 46.8509L55.6833 46.8556Z" fill="#00384D"/>
<path d="M58.4214 49.2928L58.6523 47.9592H57.678L57.4471 49.2928H56.3344L56.9369 45.8201H58.0451L57.8373 47.0105H58.8116L59.0194 45.8201H60.1391L59.5365 49.2928H58.4237H58.4214Z" fill="#00384D"/>
<path d="M60.1806 49.2928L60.7832 45.8201H61.9075L61.3049 49.2928H60.1806Z" fill="#00384D"/>
<path d="M63.0596 49.2928H61.9514L62.554 45.8201H63.8261C64.267 45.8201 64.6041 45.914 64.8373 46.0995C65.0705 46.285 65.1859 46.5433 65.1859 46.8697C65.1859 47.0927 65.149 47.2853 65.0774 47.4473C65.0058 47.6116 64.8996 47.7455 64.7611 47.8488C64.6226 47.9545 64.4563 48.0319 64.2601 48.0813C64.0639 48.1329 63.8399 48.1564 63.5906 48.1564H63.2627L63.0596 49.2882V49.2928ZM63.586 47.3064C63.7407 47.3064 63.8607 47.2806 63.9484 47.2289C64.0362 47.1772 64.0777 47.0951 64.0777 46.9847C64.0777 46.879 64.0431 46.8086 63.9715 46.7687C63.8999 46.7288 63.8053 46.71 63.6829 46.71H63.5144L63.4082 47.3087H63.586V47.3064Z" fill="#00384D"/>
<path d="M67.4761 46.8556C67.4206 46.7899 67.3514 46.7382 67.2637 46.6959C67.1759 46.656 67.0767 46.6349 66.9589 46.6349C66.8689 46.6349 66.7881 46.6537 66.7165 46.6936C66.6449 46.7335 66.608 46.7946 66.608 46.8744C66.608 46.9401 66.638 46.9894 66.7003 47.027C66.7604 47.0622 66.8504 47.0998 66.9705 47.1397C67.1182 47.189 67.2498 47.2454 67.3652 47.3064C67.4807 47.3675 67.5776 47.4403 67.6584 47.5225C67.7392 47.6046 67.7993 47.6986 67.8431 47.8019C67.887 47.9075 67.9078 48.0249 67.9078 48.1541C67.9078 48.3771 67.8593 48.565 67.7646 48.7223C67.6677 48.8796 67.5453 49.0064 67.3976 49.105C67.2498 49.2037 67.0836 49.2741 66.9058 49.3211C66.7257 49.3657 66.5526 49.3892 66.3817 49.3892C66.2478 49.3892 66.1116 49.3774 65.9777 49.3539C65.8438 49.3305 65.7122 49.2976 65.5899 49.2553C65.4652 49.2131 65.3498 49.1614 65.2412 49.098C65.1327 49.037 65.0381 48.9665 64.9573 48.8867L65.7191 48.1705C65.7584 48.2175 65.8046 48.2574 65.86 48.2926C65.9154 48.3278 65.9708 48.3584 66.0308 48.3842C66.0908 48.4077 66.1509 48.4288 66.2109 48.4429C66.2709 48.457 66.3286 48.464 66.3794 48.464C66.4926 48.464 66.5826 48.4452 66.6495 48.4077C66.7165 48.3701 66.7511 48.3161 66.7511 48.2433C66.7511 48.1846 66.7234 48.1329 66.6657 48.086C66.608 48.039 66.5041 47.9921 66.3494 47.9428C66.2271 47.9028 66.1116 47.8582 66.0054 47.8066C65.8969 47.7549 65.8046 47.6915 65.7261 47.6187C65.6476 47.5459 65.5852 47.4567 65.5414 47.3534C65.4952 47.2501 65.4744 47.1256 65.4744 46.9777C65.4744 46.7969 65.5114 46.6302 65.5829 46.4776C65.6545 46.3249 65.7584 46.1911 65.8923 46.0784C66.0262 45.9657 66.1855 45.8765 66.3702 45.8131C66.5549 45.7497 66.7581 45.7168 66.9797 45.7168C67.1021 45.7168 67.2221 45.7285 67.3422 45.7497C67.4622 45.7708 67.573 45.8013 67.6792 45.8389C67.7854 45.8765 67.8824 45.9211 67.9724 45.9727C68.0625 46.0244 68.1387 46.0831 68.1987 46.1488L67.4853 46.8509L67.4761 46.8556Z" fill="#00384D"/>
<path d="M29.4312 44.8243H28.2837L28.1868 42.8238H28.1683L27.2725 44.8243H26.139L25.8735 41.3516H27.0555V43.338H27.074L27.8751 41.3516H29.0225L29.0618 43.338H29.0802L29.8814 41.3516H31.0426L29.4312 44.8243Z" fill="#00384D"/>
<path d="M32.4694 44.9137C32.197 44.9137 31.9546 44.8761 31.7445 44.7986C31.5344 44.7211 31.3566 44.6131 31.2135 44.4723C31.0704 44.3314 30.9619 44.1647 30.888 43.9721C30.8141 43.7796 30.7772 43.5659 30.7772 43.3334C30.7772 43.0446 30.828 42.777 30.9272 42.5234C31.0265 42.2721 31.1673 42.0514 31.3474 41.8659C31.5275 41.6804 31.7445 41.5325 32.0008 41.4245C32.257 41.3165 32.541 41.2625 32.8527 41.2625C33.1297 41.2625 33.3721 41.3 33.5822 41.3775C33.7923 41.455 33.9701 41.563 34.1132 41.7039C34.2564 41.8448 34.3649 42.0115 34.4387 42.204C34.5126 42.3966 34.5496 42.6102 34.5496 42.8427C34.5496 43.1315 34.5011 43.3992 34.4018 43.6528C34.3048 43.904 34.164 44.1247 33.9816 44.3102C33.7992 44.4957 33.5822 44.6437 33.326 44.7517C33.0697 44.8597 32.7857 44.9137 32.4694 44.9137ZM33.386 42.9272C33.386 42.838 33.3721 42.7558 33.3444 42.6807C33.3167 42.6032 33.2775 42.5375 33.2244 42.4787C33.1713 42.4224 33.1043 42.3778 33.0258 42.3449C32.9473 42.312 32.8573 42.2956 32.758 42.2956C32.6333 42.2956 32.5202 42.3214 32.4186 42.3754C32.3171 42.4294 32.2316 42.4999 32.1601 42.5891C32.0885 42.6783 32.0354 42.7793 31.9961 42.8944C31.9569 43.0094 31.9384 43.1245 31.9384 43.2419C31.9384 43.3311 31.9523 43.4133 31.98 43.4884C32.0077 43.5659 32.0469 43.6316 32.1 43.6904C32.1531 43.7467 32.2178 43.7937 32.2986 43.8242C32.3771 43.8571 32.4671 43.8735 32.571 43.8735C32.6957 43.8735 32.8088 43.8477 32.9081 43.796C33.0074 43.7444 33.0928 43.6739 33.1643 43.5847C33.2359 43.4955 33.289 43.3945 33.3283 43.2794C33.3675 43.1644 33.386 43.047 33.386 42.9272Z" fill="#00384D"/>
<path d="M36.5673 44.8243L36.0987 43.554H35.9648L35.7524 44.8243H34.6765L35.2791 41.3516H36.6828C36.8698 41.3516 37.0383 41.3727 37.1884 41.415C37.3384 41.4572 37.4677 41.5206 37.5739 41.6005C37.6801 41.6803 37.7609 41.7836 37.8163 41.901C37.8717 42.0208 37.9018 42.1569 37.9018 42.3096C37.9018 42.5984 37.8348 42.8332 37.7009 43.021C37.567 43.2065 37.3846 43.3357 37.1537 43.4038L37.8186 44.822H36.565L36.5673 44.8243ZM36.3203 42.8332C36.4681 42.8332 36.5835 42.8074 36.6666 42.7581C36.7497 42.7064 36.7913 42.6266 36.7913 42.5162C36.7913 42.4152 36.7566 42.3448 36.6874 42.3072C36.6181 42.2697 36.5235 42.2509 36.4057 42.2509H36.1979L36.0964 42.8355H36.318L36.3203 42.8332Z" fill="#00384D"/>
<path d="M38.0726 44.8243L38.6752 41.3516H39.7995L39.3655 43.8522H40.5175L40.349 44.8243H38.0726Z" fill="#00384D"/>
<path d="M41.3163 41.3517H42.7292C42.9232 41.3517 43.1148 41.3775 43.311 41.4315C43.505 41.4856 43.6804 41.5724 43.8374 41.6898C43.9944 41.8072 44.1214 41.9599 44.2207 42.1477C44.3199 42.3356 44.3707 42.5633 44.3707 42.831C44.3707 43.1362 44.3176 43.411 44.2137 43.6575C44.1098 43.9041 43.9644 44.113 43.7774 44.2844C43.5904 44.4559 43.3711 44.5897 43.1171 44.6813C42.8631 44.7752 42.5861 44.8221 42.2883 44.8221H40.7161L41.3186 41.3494L41.3163 41.3517ZM41.9674 43.8477H42.3298C42.4753 43.8477 42.6023 43.8219 42.7108 43.7702C42.8193 43.7186 42.9116 43.6528 42.9855 43.5683C43.0594 43.4838 43.1148 43.3898 43.1517 43.2818C43.1887 43.1762 43.2071 43.0658 43.2071 42.9507C43.2071 42.8615 43.1933 42.7793 43.1679 42.6995C43.1425 42.6197 43.1009 42.5516 43.0478 42.4952C42.9924 42.4389 42.9232 42.3919 42.8378 42.3567C42.7523 42.3215 42.6531 42.305 42.5353 42.305H42.2352L41.9651 43.8454L41.9674 43.8477Z" fill="#00384D"/>
<path d="M26.3699 40.403L26.9724 36.9302H27.5658L26.9632 40.403H26.3699Z" fill="#00384D"/>
<path d="M29.5674 36.9302C29.6875 36.9302 29.8052 36.9443 29.923 36.9702C30.0407 36.996 30.1469 37.0406 30.2416 37.0993C30.3362 37.1603 30.4124 37.2378 30.4701 37.3341C30.5278 37.4304 30.5579 37.5501 30.5579 37.6887C30.5579 37.9211 30.4886 38.1137 30.3524 38.2639C30.2162 38.4166 30.0338 38.5199 29.8098 38.5762V38.5856C29.9968 38.6161 30.1492 38.6936 30.267 38.8228C30.3847 38.9519 30.4447 39.1186 30.4447 39.3253C30.4447 39.5014 30.4078 39.6563 30.3362 39.7902C30.2647 39.924 30.1631 40.0367 30.0338 40.1259C29.9045 40.2152 29.7521 40.2833 29.5744 40.3302C29.3966 40.3748 29.2004 40.3983 28.988 40.3983H27.7782L28.3808 36.9255H29.5674V36.9302ZM28.6186 38.8627L28.4454 39.8935H29.0387C29.1449 39.8935 29.2465 39.8841 29.3435 39.8606C29.4405 39.8371 29.5259 39.8066 29.6021 39.7596C29.6783 39.715 29.736 39.6516 29.7798 39.5765C29.8237 39.499 29.8445 39.4074 29.8445 39.2994C29.8445 39.1632 29.7937 39.0552 29.6944 38.9777C29.5951 38.9003 29.452 38.8627 29.265 38.8627H28.6186ZM28.8748 37.4304L28.7109 38.3579H29.3273C29.3943 38.3579 29.4659 38.3485 29.542 38.332C29.6182 38.3132 29.6875 38.2827 29.7498 38.2405C29.8122 38.1982 29.8629 38.1418 29.9045 38.0737C29.9437 38.0056 29.9645 37.9211 29.9645 37.8248C29.9645 37.6816 29.9114 37.5806 29.8075 37.5196C29.7036 37.4585 29.5721 37.4304 29.4151 37.4304H28.8748Z" fill="#00384D"/>
<path d="M33.6468 39.6892C33.5684 39.8583 33.4668 40.0015 33.3444 40.1189C33.222 40.2363 33.0766 40.3279 32.9058 40.3937C32.7349 40.4594 32.541 40.4923 32.3217 40.4923C32.1254 40.4923 31.9477 40.4665 31.7907 40.4171C31.6337 40.3655 31.4998 40.2927 31.3913 40.1988C31.2827 40.1048 31.1973 39.9898 31.1396 39.8583C31.0819 39.7268 31.0519 39.5765 31.0519 39.4098C31.0519 39.3652 31.0519 39.3182 31.0565 39.2736C31.0588 39.229 31.0657 39.1797 31.075 39.1304L31.4559 36.9326H32.0492L31.6729 39.1046C31.666 39.1398 31.6614 39.1774 31.6591 39.2173C31.6568 39.2572 31.6544 39.2948 31.6544 39.33C31.6544 39.4145 31.666 39.4944 31.6914 39.5695C31.7168 39.6446 31.7537 39.7127 31.8091 39.7714C31.8645 39.8301 31.9338 39.8771 32.0192 39.9123C32.1046 39.9475 32.2085 39.964 32.3309 39.964C32.4879 39.964 32.6195 39.9381 32.7257 39.8888C32.8319 39.8372 32.9196 39.7714 32.9866 39.6892C33.0535 39.6071 33.1066 39.5155 33.1412 39.4122C33.1759 39.3089 33.2036 39.2079 33.2244 39.1046L33.6007 36.9326H34.1986L33.8177 39.1304C33.7831 39.337 33.7253 39.5225 33.6468 39.6916V39.6892Z" fill="#00384D"/>
<path d="M28.1337 19.8316C28.1337 12.67 33.8408 6.94775 40.8823 6.94775C47.9238 6.94775 53.6309 12.67 53.6309 19.8316C53.6309 26.9932 47.9238 32.7976 40.8823 32.7976C33.8408 32.7976 28.1337 26.9932 28.1337 19.8316Z" fill="url(#paint2_radial_7654_220)"/>
<path d="M47.0996 8.55858C47.088 8.55154 47.0765 8.54449 47.0649 8.53979C47.0765 8.54684 47.088 8.55388 47.0996 8.55858Z" fill="url(#paint3_radial_7654_220)"/>
<path d="M28.1406 19.8292C28.1406 20.111 28.1499 20.3928 28.1683 20.6698H28.1822C28.1637 20.3928 28.1522 20.1133 28.1522 19.8292C28.1522 16.1099 30.0545 12.7803 32.5802 10.4816C34.6927 8.56087 37.8856 7.21778 40.9169 7.21778C43.0986 7.21778 45.2642 7.55825 47.0626 8.53739C45.2342 7.52303 43.1333 6.94775 40.8984 6.94775C33.8523 6.94775 28.1406 12.6629 28.1406 19.8292Z" fill="url(#paint4_radial_7654_220)"/>
<path d="M47.3766 8.71826C47.402 8.73235 47.4274 8.74879 47.4528 8.76287C47.4458 8.75818 47.4366 8.75348 47.4297 8.74879C47.4135 8.73939 47.3951 8.73 47.3789 8.71826H47.3766Z" fill="url(#paint5_radial_7654_220)"/>
<path d="M38.5828 14.8044C38.569 14.7198 38.2204 14.5837 38.195 14.5156C38.1696 14.4475 39.4139 13.1349 39.4763 13.0551C39.5478 12.9658 39.534 12.8273 39.5063 12.8085C39.3862 12.731 39.1992 12.6512 39.0769 12.5737C38.9891 12.5197 38.7975 12.4634 38.7352 12.5549C38.6752 12.6418 38.5528 12.7756 38.4928 12.8602C38.4351 12.9424 38.3012 13.1161 38.2596 13.1819C38.1465 13.3603 38.3265 13.4848 38.3012 13.7384C38.2942 13.8135 38.128 13.8581 38.0911 13.9215C38.0426 14.0037 37.9572 14.0506 37.9295 14.1657C37.8971 14.2972 37.6339 14.2761 37.5531 14.1446C37.5347 14.1164 37.5047 13.945 37.4954 13.9145C37.47 13.8135 37.4723 13.8393 37.4054 13.8111C36.5212 13.4472 35.2537 12.9001 34.3764 12.5174C34.0024 12.353 33.1805 11.9867 32.7995 11.8082C32.7742 11.7965 32.5548 11.9515 32.4532 11.8998C32.3517 11.8482 32.5087 11.2565 32.5248 11.2353C32.5548 11.1977 32.9773 10.9207 33.0489 10.9747C33.1205 11.0287 33.0604 11.3128 33.0858 11.3527C33.1112 11.395 33.2174 11.4349 33.3329 11.4819C34.3671 11.9163 35.9786 12.5972 37.0152 13.0316C37.1676 13.095 37.4839 13.2171 37.6178 13.2711C37.6178 13.2711 37.8256 12.7874 37.9756 12.5361C38.1142 12.3037 38.2088 12.0431 38.3473 11.8129C38.4374 11.6627 38.6729 11.6298 38.8575 11.6533C38.8991 11.658 36.6943 10.2609 36.6204 10.2022C36.6066 10.1904 36.4242 10.329 36.3226 10.2632C36.221 10.1975 36.4357 9.6856 36.4611 9.65273C36.4842 9.6222 36.9944 9.47662 37.0498 9.54237C37.1053 9.60811 36.9944 9.85466 36.9852 9.86875C36.9506 9.9204 39.691 11.6251 39.7741 11.6697C39.8572 11.7143 40.3189 11.078 40.3951 11.0451C40.4713 11.0123 40.8407 11.0663 40.9007 11.0146C40.9538 10.9676 42.2075 9.5588 42.2606 9.50949C42.2883 9.46253 42.0528 9.35217 42.0597 9.32869C42.0666 9.30052 42.6784 8.67593 42.7269 8.67358C42.7754 8.67358 43.7704 9.10563 43.7704 9.13615C43.7704 9.16668 43.565 9.33809 43.5303 9.36861C43.498 9.39679 43.2902 9.3193 43.2348 9.37565C43.1771 9.43201 41.8612 10.8855 41.7411 11.0451C41.688 11.1156 41.8542 11.294 41.8612 11.3574C41.8681 11.4208 41.7573 11.6415 41.778 11.6791C41.7988 11.7143 42.0158 11.712 42.0597 11.6932C42.1013 11.6721 42.0597 11.5359 42.0943 11.4795C42.2582 11.2071 42.5468 11.0616 42.7131 11.0334C42.7292 11.031 42.847 10.9747 42.9901 10.9512C43.0432 10.9418 43.0963 10.9371 43.1517 10.9418C43.1933 10.9442 43.2302 10.9324 43.2695 10.9489C43.3087 10.9629 43.3479 11.0052 43.3803 11.0357C43.4103 11.0639 43.4726 11.0545 43.5142 11.0803C43.5696 11.1132 43.595 11.186 43.6296 11.233C43.6573 11.2705 43.7312 11.294 43.7635 11.3339C43.7981 11.3739 43.8028 11.4255 43.8328 11.4772C43.8743 11.5476 43.909 11.6298 43.9274 11.7448C43.9413 11.8364 44.0036 11.9656 43.9921 12.0501C43.9875 12.0877 43.9043 12.0924 43.8951 12.1276C43.8813 12.1839 43.8605 12.2356 43.8351 12.2873C43.7981 12.36 43.752 12.4281 43.6943 12.4868C43.528 12.6559 43.4172 12.7451 43.4126 12.7663C43.3964 12.8297 43.5488 12.9212 43.595 13.1372C43.6342 13.358 43.565 13.5951 43.3895 13.7008C43.2464 13.7877 43.1402 13.8088 43.1055 13.8323C43.0617 13.8651 43.0917 13.8957 43.0409 13.9332C42.8677 14.0506 42.6692 14.1774 42.5237 14.2901C42.3598 14.4169 42.0158 14.9124 41.9073 15.0368C41.7988 15.1613 41.6003 15.3914 41.4941 15.5182C41.4664 15.5511 41.187 15.497 41.1385 15.5581C41.0901 15.6191 41.3255 15.9831 41.404 16.1545C41.561 16.4973 41.7688 16.7955 41.9166 17.143C42.002 17.3426 42.1151 18.141 42.129 18.3312C42.1359 18.4298 42.0989 18.5331 42.0782 18.6341C42.0297 18.8665 41.9535 19.0943 41.9304 19.3291C41.8981 19.6766 41.785 19.9912 41.6303 20.2965C41.5402 20.4726 41.4502 20.6487 41.3671 20.8295C41.2632 20.9915 41.2794 21.0807 41.2932 21.1254C41.3232 21.2287 41.0877 21.8251 41.0231 22.0387C40.9146 22.4003 40.9908 22.5271 41.1316 22.5835C41.1893 22.6046 41.2494 22.6187 41.3071 22.6399C41.4502 22.6939 41.4825 22.8113 41.404 23.0742C41.5818 23.1024 41.7503 23.1353 41.9189 23.1517C42.9763 23.0132 45.8944 22.5037 46.1322 22.4544C46.7048 22.337 47.2012 21.98 47.2981 22.02C47.3951 22.0599 47.2196 22.6398 46.9172 22.7643C46.714 22.8465 46.3839 22.9404 46.1253 22.9897C45.8667 23.039 34.8058 24.9198 34.755 24.8165C34.7042 24.7132 34.9189 24.3328 35.0205 24.26C35.1221 24.1872 38.3543 23.7082 39.4255 23.4852C39.6702 23.4335 40.1065 23.3044 40.2428 23.2668C40.2335 23.1963 39.7833 23.1541 39.7533 23.0132C39.6841 22.6774 40.0904 22.1162 40.1966 21.8016C40.2843 21.5762 40.4159 21.1371 40.4459 21.0009C40.4505 20.9845 40.499 20.3575 40.6237 19.9278C40.7022 19.6602 40.903 19.3667 41.0092 19.1671C41.1224 18.9088 41.037 18.6012 40.8015 18.3241C40.6537 18.148 40.4644 18.0118 40.3097 17.8428C40.1066 17.6197 39.9149 17.3849 39.7233 17.1524C39.6425 17.0538 39.5686 17.0397 39.4532 17.1031C38.876 17.4154 38.5366 17.885 38.1349 18.3993C37.8787 18.7256 37.5185 19.0426 37.156 19.2586C36.976 19.3667 36.7982 19.4794 36.625 19.5991C36.5696 19.6367 36.4796 19.6883 36.445 19.7564C36.2303 20.1885 35.8724 20.489 35.5515 20.8225C35.3553 21.0267 35.0251 21.5198 35.0182 21.5457C34.9928 21.6231 35.0228 21.7218 34.9836 21.7899C34.9212 21.9002 34.2633 22.6422 34.1432 22.7831C34.0578 22.8817 33.8592 23.0061 33.7577 23.0155C33.6422 23.0249 33.506 23.1776 33.4137 23.2691C33.2982 23.3818 32.3378 24.5676 32.0839 24.8705C32.0677 24.8916 31.7329 25.3753 31.6083 25.4505C31.4836 25.5256 31.195 25.3096 31.195 25.2063C31.195 25.103 31.5575 24.7014 31.6198 24.6099C31.9476 24.1285 32.9635 22.9075 33.0951 22.769C33.132 22.7197 33.1228 22.506 33.1158 22.4497C33.1089 22.3933 33.162 22.2829 33.2036 22.2102C33.2336 22.1561 33.3606 22.0387 33.4067 21.9894C33.5314 21.8603 33.7761 21.501 33.8708 21.3907C33.9447 21.3038 34.5588 20.7356 34.6881 20.543C34.7943 20.3834 34.9212 20.266 35.009 20.1392C35.1937 19.8715 35.3229 19.578 35.5192 19.3197C35.6392 19.1624 35.8285 19.0379 35.9925 18.9252C36.4242 18.6294 36.7659 18.2607 36.9875 17.7747C37.1745 17.3638 37.3661 16.9552 37.5878 16.5654C37.7309 16.3142 37.9341 16.0982 38.1003 15.861C38.2134 15.7013 38.3427 15.5604 38.3935 15.3444C38.4581 15.0697 38.6082 14.8866 38.5944 14.8044H38.5828Z" fill="white"/>
<path d="M27.358 17.9907C22.0896 21.2616 19.4207 24.5771 20.0579 26.4625C21.0506 29.3906 30.4124 30.0386 42.7131 25.7323C55.0115 21.426 61.9999 15.051 61.0071 12.1229C60.3792 10.2633 56.3759 9.32405 50.3941 9.9862C49.8954 9.48137 49.3552 9.01645 48.7849 8.59615C68.6628 5.45679 69.4038 19.2258 43.6735 28.2353C17.9316 37.2495 10.186 25.9225 27.7782 15.9456C27.5889 16.6077 27.448 17.2887 27.358 17.9884" fill="#D4D700"/>
<path fill-rule="evenodd" clip-rule="evenodd" d="M110.926 9.60605C98.8927 1.91849 89.1408 11.8344 96.7018 24.0724C89.1408 36.3082 98.8927 46.2288 110.926 38.5389C122.956 46.2288 132.71 36.3082 125.149 24.0724C132.713 11.8344 122.959 1.91849 110.926 9.60605Z" fill="white"/>
<path style="mix-blend-mode:multiply" fill-rule="evenodd" clip-rule="evenodd" d="M110.094 34.6621H106.892L103.632 30.4896V34.6621H100.43V24.8332H103.632L106.892 29.0151V24.8332H110.094V34.6621ZM110.094 23.7014H106.892L103.632 19.5312V23.7014H100.43V13.8771H103.632L104.23 14.6426L106.892 18.0613V13.8771H110.094V23.7037V23.7014ZM122.072 31.6613V34.6621H118.872V29.7899L118.549 30.3018L116.635 33.2885H116.577L114.396 29.7923V34.6645H111.193V24.8379H114.396L116.633 28.2918L118.87 24.8379H122.07V31.6637L122.072 31.6613ZM122.072 23.7014H118.872V18.8292L116.635 22.3278H116.577L114.396 18.8292V23.7014H111.193V13.8748H114.396L116.633 17.3288L118.87 13.8748H122.07V23.7014H122.072Z" fill="url(#paint6_linear_7654_220)"/>
<path d="M106.001 53.7401L106.364 51.6996L109.896 49.1778C110.159 48.9876 110.51 48.6871 110.51 48.4077C110.51 48.0954 110.346 47.8606 109.928 47.8606C109.423 47.8606 109.106 48.241 108.975 48.7974L106.638 48.4523C107.033 46.7335 108.338 45.6182 110.171 45.6182C111.639 45.6182 113.177 46.3108 113.177 47.9827C113.177 49.4432 112.188 50.0912 111.334 50.6712L110.007 51.5752H112.77L112.396 53.7401H106.003H106.001Z" fill="white"/>
<path d="M117.923 45.644C114.917 45.644 113.855 48.6895 113.855 50.9084C113.855 52.3806 114.656 53.9421 117.002 53.9421C119.973 53.9421 121.026 50.8967 121.026 48.6777C121.026 47.2055 120.237 45.644 117.923 45.644ZM117.111 51.756C116.596 51.756 116.365 51.2324 116.365 50.5844C116.365 49.4362 116.859 47.7855 117.713 47.7855C118.24 47.7855 118.438 48.3091 118.438 48.9572C118.438 50.2181 117.944 51.756 117.111 51.756Z" fill="white"/>
<path d="M121.245 53.7401L121.608 51.6996L125.14 49.1778C125.403 48.9876 125.754 48.6871 125.754 48.4077C125.754 48.0954 125.59 47.8606 125.173 47.8606C124.667 47.8606 124.351 48.241 124.219 48.7974L121.883 48.4523C122.277 46.7335 123.582 45.6182 125.415 45.6182C126.883 45.6182 128.421 46.3108 128.421 47.9827C128.421 49.4432 127.433 50.0912 126.579 50.6712L125.251 51.5752H128.015L127.64 53.7401H121.248H121.245Z" fill="white"/>
<path d="M135.098 50.3166L135.876 45.8435H132.717L129.185 50.2273L128.813 52.3359H132.486L132.246 53.74H134.55L134.793 52.3359H135.857L136.208 50.3166H135.1H135.098ZM132.828 50.3166H131.468L133.147 48.2197H133.191L132.828 50.3166Z" fill="white"/>
<path d="M79.3242 48.7364L78.7586 47.2947H78.7425L78.5208 48.7364H77.6112L78.1168 45.8271H79.0334L79.6105 47.344H79.6267L79.8622 45.8271H80.7718L80.2662 48.7364H79.3242Z" fill="white"/>
<path d="M80.8619 47.4872C80.8619 46.5221 81.5522 45.752 82.6003 45.752C83.5261 45.752 84.0225 46.2991 84.0225 47.0763C84.0225 48.0413 83.3345 48.8115 82.2817 48.8115C81.3652 48.8115 80.8642 48.2644 80.8642 47.4872H80.8619ZM82.5218 46.616C82.097 46.616 81.8338 47.0105 81.8338 47.4097C81.8338 47.7008 82.0185 47.9403 82.3625 47.9403C82.7781 47.9403 83.0459 47.5529 83.0459 47.1467C83.0459 46.8555 82.8589 46.616 82.5195 46.616H82.5218Z" fill="white"/>
<path d="M85.7078 48.7364H84.6642L84.251 45.8271H85.2576L85.3869 47.6516H85.403L86.2642 45.8271H87.3423L85.7055 48.7364H85.7078Z" fill="white"/>
<path d="M86.9683 48.7364L87.4739 45.8272H89.344L89.2054 46.6208H88.215L88.1665 46.9003H89.1131L88.9838 47.6399H88.0372L87.9841 47.9428H89.0923L88.9538 48.7364H86.966H86.9683ZM88.7137 45.5971H88.0465L88.5913 45.0054H89.4317L88.7114 45.5971H88.7137Z" fill="white"/>
<path d="M92.9709 48.7364L93.2895 47.0505H93.2664L92.4214 48.7364H91.7635L91.5095 47.0505H91.4887L91.2417 48.7364H90.369L90.8746 45.8271H92.0659L92.3176 47.4215H92.3383L93.0817 45.8271H94.3861L93.8805 48.7364H92.9709Z" fill="white"/>
<path d="M94.3815 48.7364L94.8871 45.8272H96.7572L96.6186 46.6208H95.6282L95.5797 46.9003H96.5263L96.397 47.6399H95.4504L95.3973 47.9428H96.5055L96.367 48.7364H94.3792H94.3815ZM96.1708 45.5971H95.4966L95.0487 45.0054H95.6559L95.8776 45.2942L96.1962 45.0054H96.8103L96.1708 45.5971Z" fill="white"/>
<path d="M98.7357 46.6957C98.6434 46.5877 98.4979 46.5102 98.304 46.5102C98.1539 46.5102 98.0085 46.576 98.0085 46.7122C98.0085 46.8202 98.1147 46.8695 98.3109 46.9352C98.8027 47.0996 99.0982 47.3462 99.0982 47.7852C99.0982 48.5343 98.3825 48.8207 97.8122 48.8207C97.3644 48.8207 96.8864 48.6681 96.6163 48.4004L97.2558 47.7993C97.3805 47.9473 97.6391 48.0459 97.8099 48.0459C97.9969 48.0459 98.1216 47.9801 98.1216 47.8604C98.1216 47.7618 98.0408 47.6913 97.7868 47.6091C97.3736 47.473 97.0504 47.2875 97.0504 46.7991C97.0504 46.1956 97.5629 45.7424 98.3109 45.7424C98.7195 45.7424 99.1282 45.8857 99.3337 46.104L98.7357 46.691V46.6957Z" fill="white"/>
<path d="M101.04 46.63L100.675 48.7386H99.7377L100.1 46.63H99.3776L99.5184 45.8293H101.878L101.737 46.63H101.038H101.04Z" fill="white"/>
<path d="M101.751 47.4872C101.751 46.5221 102.441 45.752 103.489 45.752C104.415 45.752 104.911 46.2991 104.911 47.0763C104.911 48.0413 104.223 48.8115 103.171 48.8115C102.254 48.8115 101.753 48.2644 101.753 47.4872H101.751ZM103.411 46.616C102.986 46.616 102.723 47.0105 102.723 47.4097C102.723 47.7008 102.908 47.9403 103.252 47.9403C103.667 47.9403 103.935 47.5529 103.935 47.1467C103.935 46.8555 103.748 46.616 103.408 46.616H103.411Z" fill="white"/>
<path d="M78.4931 53.747L77.9136 52.2701H77.8975L77.6689 53.747H76.7385L77.2557 50.7673H78.1953L78.7863 52.3218H78.8025L79.0426 50.7673H79.973L79.4559 53.747H78.4908H78.4931Z" fill="white"/>
<path d="M82.0554 53.747L81.9885 53.2915H81.0373L80.7926 53.747H79.7236L81.5244 50.7673H82.5333L83.0458 53.747H82.0531H82.0554ZM81.8245 51.7817L81.4067 52.5472H81.9123L81.8245 51.7817Z" fill="white"/>
<path d="M87.0976 53.747L87.4255 52.0212H87.4001L86.5343 53.747H85.8602L85.5993 52.0212H85.5785L85.3269 53.747H84.4334L84.9506 50.7673H86.1719L86.4281 52.4016H86.4489L87.2108 50.7673H88.5475L88.0303 53.747H87.0999H87.0976Z" fill="white"/>
<path d="M88.7252 52.4674C88.7252 51.4789 89.434 50.6899 90.5052 50.6899C91.4541 50.6899 91.962 51.2488 91.962 52.0448C91.962 53.0333 91.2579 53.8223 90.1774 53.8223C89.2377 53.8223 88.7252 53.2634 88.7252 52.4674ZM90.4267 51.5752C89.9927 51.5752 89.7226 51.979 89.7226 52.3876C89.7226 52.6858 89.9142 52.93 90.2651 52.93C90.6922 52.93 90.9646 52.5332 90.9646 52.1176C90.9646 51.8194 90.7753 51.5752 90.4267 51.5752Z" fill="white"/>
<path d="M93.7397 53.747L93.338 52.6575H93.2226L93.0402 53.747H92.1167L92.6338 50.7673H93.839C94.4808 50.7673 94.8871 51.0655 94.8871 51.5915C94.8871 52.0799 94.6424 52.4133 94.2453 52.5307L94.8156 53.747H93.7397ZM93.9336 51.7653C93.9336 51.5939 93.8044 51.5375 93.6035 51.5375H93.4257L93.338 52.0376H93.5273C93.779 52.0376 93.9336 51.9531 93.9336 51.7629V51.7653Z" fill="white"/>
<path d="M97.3205 53.747L97.2535 53.2915H96.3024L96.0576 53.747H94.9887L96.7895 50.7673H97.7984L98.3109 53.747H97.3182H97.3205ZM97.0896 51.7817L96.6717 52.5472H97.1774L97.0896 51.7817Z" fill="white"/>
<path d="M99.9478 53.747H98.8789L98.4564 50.7673H99.486L99.6176 52.6364H99.6338L100.516 50.7673H101.622L99.9455 53.747H99.9478Z" fill="white"/>
<path d="M101.363 53.7472L101.88 50.7675H103.796L103.656 51.5799H102.642L102.594 51.8664H103.563L103.432 52.6248H102.462L102.409 52.9371H103.542L103.402 53.7496H101.365L101.363 53.7472ZM103.196 50.5304H102.506L102.046 49.9246H102.667L102.896 50.2204L103.224 49.9246H103.854L103.201 50.5304H103.196Z" fill="white"/>
<path d="M149.169 0.704418L138.768 59.2956H0.82882L11.2387 0.704418H149.171M150 0H10.6592L10.5553 0.579971L0.147756 59.1711L0 60H139.348L139.452 59.42L149.852 0.828865L150 0Z" fill="#C2CACE"/>
<defs>
<linearGradient id="paint0_linear_7654_220" x1="110.055" y1="59.2958" x2="110.055" y2="0.70459" gradientUnits="userSpaceOnUse">
<stop stop-color="#003A80"/>
<stop offset="0.18" stop-color="#004494"/>
<stop offset="0.87" stop-color="#1BBBE9"/>
</linearGradient>
<linearGradient id="paint1_linear_7654_220" x1="75.3164" y1="17.141" x2="145.072" y2="42.1034" gradientUnits="userSpaceOnUse">
<stop stop-color="#003A80"/>
<stop offset="0.03" stop-color="#003A80" stop-opacity="0.8"/>
<stop offset="0.08" stop-color="#003A80" stop-opacity="0.46"/>
<stop offset="0.13" stop-color="#003A80" stop-opacity="0.21"/>
<stop offset="0.17" stop-color="#003A80" stop-opacity="0.06"/>
<stop offset="0.2" stop-color="#003A80" stop-opacity="0"/>
</linearGradient>
<radialGradient id="paint2_radial_7654_220" cx="0" cy="0" r="1" gradientUnits="userSpaceOnUse" gradientTransform="translate(33.3237 11.5053) scale(19.5246 19.8576)">
<stop stop-color="#0092C6"/>
<stop offset="0.14" stop-color="#008DC0"/>
<stop offset="0.31" stop-color="#0081AF"/>
<stop offset="0.51" stop-color="#006C94"/>
<stop offset="0.73" stop-color="#00506E"/>
<stop offset="0.96" stop-color="#002B3F"/>
<stop offset="1" stop-color="#002536"/>
</radialGradient>
<radialGradient id="paint3_radial_7654_220" cx="0" cy="0" r="1" gradientUnits="userSpaceOnUse" gradientTransform="translate(34.1539 9.10568) scale(16.6323 16.9179)">
<stop stop-color="#85CFE8"/>
<stop offset="1" stop-color="#85CFE8" stop-opacity="0"/>
</radialGradient>
<radialGradient id="paint4_radial_7654_220" cx="0" cy="0" r="1" gradientUnits="userSpaceOnUse" gradientTransform="translate(34.1525 9.10562) scale(16.6341 16.9178)">
<stop stop-color="#85CFE8"/>
<stop offset="1" stop-color="#85CFE8" stop-opacity="0"/>
</radialGradient>
<radialGradient id="paint5_radial_7654_220" cx="0" cy="0" r="1" gradientUnits="userSpaceOnUse" gradientTransform="translate(34.1526 9.10569) scale(16.6339 16.9177)">
<stop stop-color="#85CFE8"/>
<stop offset="1" stop-color="#85CFE8" stop-opacity="0"/>
</radialGradient>
<linearGradient id="paint6_linear_7654_220" x1="100.73" y1="34.9674" x2="122.125" y2="13.9313" gradientUnits="userSpaceOnUse">
<stop stop-color="#172983"/>
<stop offset="0.79" stop-color="#1BBBE9"/>
</linearGradient>
</defs>
</svg>
