<svg width="40" height="40" viewBox="0 0 40 40" fill="none" xmlns="http://www.w3.org/2000/svg">
<path d="M26.666 13.3333C26.666 15.1014 25.9636 16.7971 24.7133 18.0474C23.4631 19.2976 21.7674 20 19.9993 20C18.2312 20 16.5355 19.2976 15.2853 18.0474C14.035 16.7971 13.3326 15.1014 13.3326 13.3333M6.05467 12.3356L4.888 26.3356C4.63737 29.3432 4.51206 30.8469 5.02044 32.007C5.46711 33.0262 6.24102 33.8673 7.21961 34.397C8.33342 35 9.8424 35 12.8604 35H27.1382C30.1562 35 31.6652 35 32.779 34.397C33.7576 33.8673 34.5315 33.0262 34.9782 32.007C35.4865 30.8469 35.3612 29.3432 35.1106 26.3356L33.9439 12.3356C33.7283 9.74792 33.6205 8.45406 33.0474 7.47476C32.5428 6.6124 31.7914 5.921 30.8901 5.48974C29.8666 5 28.5683 5 25.9716 5L14.027 5C11.4303 5 10.132 5 9.1085 5.48974C8.20721 5.921 7.4558 6.6124 6.95118 7.47476C6.37813 8.45405 6.27031 9.74792 6.05467 12.3356Z" stroke="black" stroke-width="2" stroke-linecap="round" stroke-linejoin="round"/>
</svg>
