<svg width="40" height="40" viewBox="0 0 40 40" fill="none" xmlns="http://www.w3.org/2000/svg"><path d="M14.167 31.667v3.666c0 .467 0 .7-.091.879a.833.833 0 01-.364.364c-.179.09-.412.09-.879.09H9.667c-.467 0-.7 0-.879-.09a.833.833 0 01-.364-.364c-.09-.179-.09-.412-.09-.879v-3.666m23.333 0v3.666c0 .467 0 .7-.091.879a.833.833 0 01-.364.364c-.179.09-.412.09-.879.09h-3.166c-.467 0-.7 0-.879-.09a.833.833 0 01-.364-.364c-.09-.179-.09-.412-.09-.879v-3.666M5 20h30M5 9.167h30M10.833 25.833h2.5m13.334 0h2.5M13 31.667h14c2.8 0 4.2 0 5.27-.545a5 5 0 002.185-2.186c.545-1.069.545-2.47.545-5.27V11.334c0-2.8 0-4.2-.545-5.27a5 5 0 00-2.185-2.185c-1.07-.545-2.47-.545-5.27-.545H13c-2.8 0-4.2 0-5.27.545a5 5 0 00-2.185 2.185C5 7.133 5 8.533 5 11.333v12.334c0 2.8 0 4.2.545 5.27a5 5 0 002.185 2.185c1.07.545 2.47.545 5.27.545z" stroke="#fff" stroke-width="2" stroke-linecap="round" stroke-linejoin="round"/></svg>