<svg width="40" height="40" viewBox="0 0 40 40" fill="none" xmlns="http://www.w3.org/2000/svg"><path d="M35 16.667H5M26.667 3.333V10M13.333 3.333V10M13 36.667h14c2.8 0 4.2 0 5.27-.545a5 5 0 002.185-2.185c.545-1.07.545-2.47.545-5.27v-14c0-2.8 0-4.2-.545-5.27a5 5 0 00-2.185-2.185c-1.07-.545-2.47-.545-5.27-.545H13c-2.8 0-4.2 0-5.27.545a5 5 0 00-2.185 2.185C5 10.467 5 11.867 5 14.667v14c0 2.8 0 4.2.545 5.27a5 5 0 002.185 2.185c1.07.545 2.47.545 5.27.545z" stroke="#fff" stroke-width="2" stroke-linecap="round" stroke-linejoin="round"/></svg>