<svg width="146" height="20" viewBox="0 0 146 20" fill="none" xmlns="http://www.w3.org/2000/svg"><g clip-path="url(#clip0_7796_3629)" fill="#fff"><path d="M12.328 3.485H3.129v2.633a4.633 4.633 0 012.545-.76h6.332c.263 0 .453.19.453.452 0 .264-.19.454-.453.454H5.762c-1.024 0-1.99.395-2.647 1.097a3.64 3.64 0 00-1.14 2.646c0 1.024.409 2.004 1.14 2.677a3.647 3.647 0 002.603 1.067h7.048c.263 0 .454.19.454.453a.455.455 0 01-.454.454H5.688a4.598 4.598 0 01-2.544-.76v2.631h9.944a2.303 2.303 0 002.325-2.325 2.322 2.322 0 00-2.325-2.325H6.025a1.875 1.875 0 01-1.872-1.872c0-1.038.848-1.871 1.872-1.871h6.303a2.303 2.303 0 002.325-2.326c0-.614-.249-1.199-.688-1.637a2.28 2.28 0 00-1.637-.688z"/><path d="M17.914 5.767A5.176 5.176 0 0012.694.59H-.06v18.835h13.512a5.199 5.199 0 005.206-5.206 4.88 4.88 0 00-2.997-4.504c1.199-.834 2.252-2.223 2.252-3.948zm-2.252.043A3.264 3.264 0 0112.4 9.071H5.95a.942.942 0 00-.935.936c0 .512.424.936.936.936h7.194a3.264 3.264 0 013.261 3.261 3.264 3.264 0 01-3.26 3.261H2.076v-4.504c-.659-.819-1.053-1.93-1.053-2.954 0-1.067.38-2.12 1.053-2.91V2.535h10.309c.921 0 1.755.365 2.369 1.009.585.614.907 1.433.907 2.266zM84.64 11.543c.351.453.527.98.527 1.565 0 .848-.293 1.506-.878 2.003-.585.497-1.404.746-2.457.746h-4.694V5.767h4.534c1.023 0 1.828.234 2.398.702.585.467.863 1.11.863 1.915 0 .6-.161 1.082-.468 1.477-.307.395-.731.658-1.243.82.6.116 1.067.409 1.418.862zm-5.045-1.696h1.609c.395 0 .716-.088.921-.264.22-.175.322-.438.322-.79 0-.35-.103-.614-.322-.789-.22-.175-.526-.278-.921-.278h-1.609v2.12zm2.764 3.729c.22-.19.336-.454.336-.805 0-.35-.117-.629-.35-.833-.235-.205-.556-.307-.966-.307h-1.784v2.222h1.814c.409 0 .716-.087.95-.277zM38.767 7.624V9.67h3.29v1.886h-3.29v2.223h3.714v1.96H36.31V5.664h6.17v1.96h-3.713zM89.48 5.767h-2.456v10.075h2.457V5.767zM58.903 15.74l-3.393-4.446v4.446h-2.456V5.664h2.456v4.416l3.364-4.416h2.88l-3.904 4.943 4.05 5.133h-2.997zM112.366 13.941h3.217v1.901h-5.674V5.767h2.457v8.174zM108.432 5.767v1.96h-2.661v8.115h-2.457V7.726h-2.676v-1.96h7.794zM71.333 5.664l-3.495 6.741v3.335h-2.442v-3.335L61.9 5.665h2.778l1.96 4.225 1.93-4.226h2.764zM68.7 3.47l-3.597 1.507V3.222l3.598-1.725V3.47zM32.157 3.53l-2.31 1.17-2.326-1.17V1.76l2.325 1.301 2.31-1.301v1.77zM121.009 5.664a5.13 5.13 0 00-5.133 5.133 5.13 5.13 0 005.133 5.133 5.13 5.13 0 005.132-5.133 5.139 5.139 0 00-5.132-5.133zm0 8.028c-1.507 0-2.735-1.301-2.735-2.895s1.228-2.896 2.735-2.896c1.506 0 2.734 1.302 2.734 2.896 0 1.608-1.214 2.895-2.734 2.895zM133.629 15.842V9.817c0-.6-.147-1.067-.439-1.39-.293-.32-.731-.482-1.302-.482-.57 0-1.009.161-1.316.483-.307.322-.453.79-.453 1.39v6.024h-2.457v-6.01c0-.907.19-1.667.571-2.281a3.51 3.51 0 011.55-1.404c.643-.322 1.36-.468 2.164-.468.79 0 1.506.16 2.135.468a3.444 3.444 0 011.491 1.404c.366.628.542 1.389.542 2.295v6.01h-2.486v-.014zM29.963 13.59c-1.506-.058-2.734-1.301-2.734-2.895s1.228-2.866 2.734-2.896c1.302-.029 1.784.512 2.282 1.287h2.603a5.13 5.13 0 00-10.003 1.609 5.13 5.13 0 0010.003 1.608h-2.603c-.498.79-1.068 1.331-2.282 1.287zM99.512 7.536a3.45 3.45 0 00-1.491-1.404c-.63-.307-1.331-.468-2.135-.468-.79 0-1.521.16-2.165.468a3.871 3.871 0 00-1.55 1.404c-.38.629-.57 1.39-.57 2.281v6.01h2.457v-2.72h3.524v2.735h2.457v-6.01c.029-.907-.161-1.667-.527-2.296zm-5.44 3.656v-1.39c0-.6.147-1.067.454-1.389.307-.321.745-.482 1.316-.482.57 0 1.009.16 1.301.482.293.322.439.79.439 1.39v1.389h-3.51zM48.33 11.645h-1.52c-1.258 0-2.34-.79-2.779-1.886a3.002 3.002 0 012.793-4.095h4.065V7.55h-3.656c-.614 0-1.096.498-1.096 1.097 0 .614.497 1.097 1.096 1.097h1.521c1.258 0 2.34.79 2.779 1.886a3.002 3.002 0 01-2.793 4.095h-4.343v-1.872h3.933c.614 0 1.097-.497 1.097-1.097 0-.614-.497-1.111-1.097-1.111z"/></g><defs><clipPath id="clip0_7796_3629"><path fill="#fff" transform="translate(0 .59)" d="M0 0h146v18.82H0z"/></clipPath></defs></svg>