<svg width="24" height="24" viewBox="0 0 24 24" fill="none" xmlns="http://www.w3.org/2000/svg"><g clip-path="url(#clip0_7654_353)"><path d="M.746 16.175C2.442 20.745 6.84 24 12 24c5.16 0 9.558-3.257 11.253-7.826L12 15.13.746 16.175z" fill="#FFDA44"/><path d="M12 0C6.84 0 2.442 3.258.746 7.828L12 8.87l11.253-1.043C21.558 3.257 17.16 0 12 0z" fill="#000"/><path d="M.746 7.826A11.974 11.974 0 000 12c0 1.467.264 2.873.746 4.174h22.508c.482-1.3.746-2.707.746-4.174 0-1.468-.264-2.874-.746-4.174H.746z" fill="#D80027"/></g><defs><clipPath id="clip0_7654_353"><path fill="#fff" d="M0 0h24v24H0z"/></clipPath></defs></svg>