<svg width="150" height="60" viewBox="0 0 150 60" fill="none" xmlns="http://www.w3.org/2000/svg"><path d="M138.78 59.296H.646L10.913.705h138.268l-10.401 58.59z" fill="#fff"/><path d="M138.78 59.296H70.93L81.199.705h67.982l-10.401 58.59z" fill="url(#paint0_linear_7654_220)"/><path d="M149.181.705H81.199l-10.27 58.59h67.992l10.26-58.59z" fill="url(#paint1_linear_7654_220)"/><path d="M14.443 38.907c-3.495 0-6.33 2.884-6.33 6.439s2.835 6.438 6.33 6.438c3.496 0 6.33-2.883 6.33-6.438 0-3.555-2.834-6.438-6.33-6.438zm5.917 6.439c0 3.325-2.65 6.018-5.917 6.018s-5.917-2.696-5.917-6.018c0-3.323 2.65-6.018 5.917-6.018s5.917 2.695 5.917 6.018z" fill="#1A171B"/><path d="M17.511 42.615c.086.094.21.246.28.338l1.281-.826a11.036 11.036 0 00-.242-.306l-.813.547-.055.05.041-.061.358-.728-.254-.258-.716.363-.06.043.049-.057.538-.824a6.442 6.442 0 00-.3-.246l-.815 1.303c.104.08.24.2.325.28l.767-.405.048-.037-.037.05-.397.779.002-.005zM14.602 40.964l.351-.798.023-.07-.007.072.037 1.066c.123.012.25.029.374.05l-.057-1.58a9.834 9.834 0 00-.524-.043l-.344.871-.012.066-.011-.066-.344-.87a6.695 6.695 0 00-.524.041l-.058 1.58a5.32 5.32 0 01.374-.049l.037-1.066-.007-.072.023.07.35.798h.32zM11.77 42.223c.203-.216.316-.468.115-.707a.391.391 0 00-.448-.094l-.016.007.005-.014a.381.381 0 00-.127-.394.374.374 0 00-.284-.08c-.19.018-.337.152-.734.603-.12.136-.296.352-.4.49l1.095 1.055c.362-.408.51-.561.796-.866h-.002zm-1.427-.258c.22-.275.455-.524.561-.623a.329.329 0 01.113-.075c.072-.021.146.033.162.106.016.073-.03.145-.081.206-.116.134-.543.587-.543.587l-.212-.204v.002zm.427.413l.552-.59a.482.482 0 01.127-.11c.048-.023.1-.028.148.002.046.03.067.087.055.139a.409.409 0 01-.108.171l-.552.601-.222-.213z" fill="#1A171B"/><path d="M14.443 41.528v3.818H10.69c0-2.111 1.679-3.818 3.754-3.818zM18.197 45.346c0 2.11-1.678 3.818-3.754 3.818v-3.818h3.754z" fill="#0068B1"/><path d="M18.197 45.346h-3.754v-3.818c2.076 0 3.754 1.707 3.754 3.818zM10.69 45.346h3.753v3.818c-2.075 0-3.754-1.707-3.754-3.818z" fill="#fff"/><path d="M14.443 41.528v.209c1.956 0 3.549 1.618 3.549 3.609h.205c0-2.109-1.68-3.818-3.754-3.818zm0 7.427c-1.955 0-3.548-1.618-3.548-3.61h-.206c0 2.11 1.68 3.819 3.754 3.819" fill="#1A171B"/><path d="M21.962 53.761h-.565l2.817-16.83h.568l-2.82 16.83zM25.661 50.316c.118 0 .233.014.351.038a.938.938 0 01.314.13.696.696 0 01.226.232.672.672 0 01.086.352c0 .23-.067.42-.204.57-.136.15-.314.254-.535.308v.01a.753.753 0 01.452.234.703.703 0 01.176.498.98.98 0 01-.106.46.943.943 0 01-.298.331c-.127.09-.28.155-.455.202-.175.045-.37.068-.58.068h-1.195l.595-3.433h1.173zm-.94 1.912l-.17 1.019h.586c.104 0 .206-.01.3-.03a.846.846 0 00.254-.1.484.484 0 00.176-.18.537.537 0 00.064-.275.374.374 0 00-.148-.317c-.099-.075-.24-.113-.424-.113h-.64l.002-.004zm.252-1.416l-.162.916h.61c.067 0 .136-.01.212-.026a.645.645 0 00.206-.09.49.49 0 00.152-.164c.04-.068.06-.15.06-.246 0-.144-.05-.242-.154-.3a.78.78 0 00-.388-.088h-.534l-.002-.002zM26.968 53.75l.595-3.434h.587l-.596 3.433h-.586zM30.58 53.75l-.138-.792h-1.445l-.482.791h-.695l2.202-3.433h.51l.672 3.433h-.625.002zm-.442-2.746l-.855 1.44h1.079l-.224-1.44zM32.945 50.84l-.506 2.91h-.586l.501-2.91h-1.002l.09-.524h2.584l-.09.524h-.991zM35.928 53.75l.263-1.527h-1.544l-.268 1.526h-.587l.596-3.433h.586l-.242 1.393h1.55l.242-1.393h.586l-.596 3.433h-.586zM37.27 53.75l.595-3.434h.586l-.505 2.9h1.445l-.09.533h-2.032zM41.573 50.23c.242 0 .459.035.655.103.197.07.363.169.503.296.141.127.248.284.324.467.076.183.113.392.113.62 0 .291-.049.566-.146.824-.096.258-.23.484-.404.674-.17.19-.374.343-.61.453a1.759 1.759 0 01-.77.167c-.247 0-.471-.033-.672-.101a1.422 1.422 0 01-.513-.296c-.14-.13-.249-.286-.325-.47a1.608 1.608 0 01-.113-.62c0-.29.05-.565.15-.824.1-.258.238-.483.413-.674.176-.19.381-.342.619-.453a1.79 1.79 0 01.778-.166h-.002zm-.335 3.083a1.192 1.192 0 00.981-.482 1.6 1.6 0 00.259-.495c.057-.183.087-.374.087-.569 0-.138-.023-.272-.067-.396a.877.877 0 00-.196-.327.96.96 0 00-.319-.22 1.108 1.108 0 00-.438-.083c-.203 0-.388.045-.552.132a1.314 1.314 0 00-.418.35c-.115.145-.203.31-.265.495a1.754 1.754 0 00-.093.568c0 .144.023.275.067.4a.927.927 0 00.515.545c.127.056.273.082.439.082zM45.62 53.75l-1.106-2.668h-.01l-.461 2.667h-.587l.596-3.433h.762l1.087 2.586h.01l.447-2.586h.587l-.596 3.433h-.73zM27.718 49.075c-.088.06-.19.112-.302.16a2.198 2.198 0 01-.845.157 2.02 2.02 0 01-.688-.109 1.388 1.388 0 01-.51-.31 1.317 1.317 0 01-.321-.486 1.733 1.733 0 01-.111-.631c0-.298.05-.575.152-.834.102-.258.243-.483.427-.676.183-.192.4-.345.651-.455a2.03 2.03 0 01.825-.167c.297 0 .556.047.78.14.224.095.397.21.515.346l-.776.815a.514.514 0 00-.229-.188.814.814 0 00-.653.014.815.815 0 00-.256.207.965.965 0 00-.164.3 1.13 1.13 0 00-.058.369c0 .169.053.314.157.432.104.117.261.176.471.176a.768.768 0 00.342-.078c.106-.051.198-.115.275-.19l.549.834a2.659 2.659 0 01-.233.178l.002-.004zM30.223 49.293l.23-1.334h-.973l-.231 1.334h-1.113l.603-3.473h1.108l-.208 1.19h.974l.208-1.19h1.12l-.603 3.473h-1.115zM34.266 49.293l-.077-.53h-1.108l-.284.53h-1.244l2.098-3.473h1.178l.598 3.473h-1.161zm-.27-2.29l-.488.893h.589l-.102-.892zM38.825 49.293l.381-2.01h-.03l-1.006 2.01h-.785l-.305-2.01h-.023l-.293 2.01h-1.042l.603-3.473h1.422l.3 1.902h.023l.887-1.902h1.558l-.602 3.473H38.825zM41.665 49.293h-1.108l.602-3.473h1.272c.441 0 .778.094 1.012.28.233.185.348.443.348.77 0 .223-.037.415-.108.577a.98.98 0 01-.317.402 1.36 1.36 0 01-.5.232c-.197.052-.42.075-.67.075h-.328l-.203 1.132v.005zm.526-1.987a.713.713 0 00.363-.077c.087-.052.13-.134.13-.244 0-.106-.036-.176-.107-.216a.59.59 0 00-.289-.059h-.168l-.106.599h.177v-.003zM43.835 49.293l.603-3.473h1.124l-.603 3.473h-1.124zM47.414 49.382c-.273 0-.515-.037-.725-.115a1.469 1.469 0 01-.531-.326 1.392 1.392 0 01-.326-.5 1.774 1.774 0 01-.11-.64c0-.288.05-.556.15-.81.099-.25.24-.471.42-.657.18-.185.397-.333.653-.441.256-.108.54-.162.852-.162.277 0 .52.038.73.115.21.078.387.186.53.326.143.141.252.308.326.5.074.193.11.407.11.64 0 .288-.048.556-.147.81a1.91 1.91 0 01-.42.657c-.183.185-.4.333-.656.441a2.18 2.18 0 01-.856.162zm.916-1.986a.707.707 0 00-.041-.247.59.59 0 00-.12-.202.573.573 0 00-.199-.134.69.69 0 00-.268-.049.71.71 0 00-.34.08.82.82 0 00-.258.214 1.066 1.066 0 00-.222.653c0 .089.014.17.042.246a.591.591 0 00.12.202.525.525 0 00.199.134c.078.033.168.049.272.049a.72.72 0 00.337-.078.797.797 0 00.257-.21 1.08 1.08 0 00.222-.657zM51.666 49.293l-.674-1.721h-.018l-.266 1.72h-1.085l.603-3.472h1.094l.69 1.81h.019l.279-1.81h1.085l-.602 3.473h-1.125zM55.683 46.856a.624.624 0 00-.212-.16.722.722 0 00-.305-.061c-.09 0-.17.019-.242.059a.196.196 0 00-.109.18c0 .066.03.115.093.153.06.035.15.073.27.113.147.049.279.105.395.166.115.062.212.134.293.217.08.082.14.176.184.279a.91.91 0 01.065.352c0 .223-.049.411-.143.568-.097.158-.22.284-.367.383a1.63 1.63 0 01-.492.216 2.17 2.17 0 01-.928.033 2.524 2.524 0 01-.388-.099 1.88 1.88 0 01-.348-.157 1.324 1.324 0 01-.285-.211l.762-.717c.04.047.086.087.141.123a1.2 1.2 0 00.171.091c.06.024.12.045.18.059a.75.75 0 00.169.021.553.553 0 00.27-.056c.067-.038.101-.092.101-.165 0-.058-.027-.11-.085-.157a1.028 1.028 0 00-.316-.143 2.732 2.732 0 01-.344-.136 1.108 1.108 0 01-.28-.188.769.769 0 01-.184-.266.916.916 0 01-.067-.375c0-.181.037-.348.108-.5.072-.153.176-.287.31-.4.133-.112.293-.202.477-.265.185-.063.388-.096.61-.096a2.075 2.075 0 01.993.256c.09.051.166.11.226.176l-.713.702-.01.005zM58.421 49.293l.231-1.334h-.974l-.23 1.334h-1.114l.603-3.473h1.108l-.208 1.19h.975l.207-1.19h1.12l-.603 3.473h-1.115zM60.18 49.293l.603-3.473h1.124l-.602 3.473H60.18zM63.06 49.293H61.95l.603-3.473h1.272c.441 0 .778.094 1.011.28.233.185.349.443.349.77 0 .223-.037.415-.109.577a.981.981 0 01-.316.402 1.362 1.362 0 01-.5.232c-.197.052-.421.075-.67.075h-.328l-.203 1.132v.005zm.526-1.987a.713.713 0 00.362-.077c.088-.052.13-.134.13-.244 0-.106-.035-.176-.107-.216a.59.59 0 00-.288-.059h-.169l-.106.599h.178v-.003zM67.476 46.856a.625.625 0 00-.212-.16.722.722 0 00-.305-.061c-.09 0-.17.019-.243.059a.196.196 0 00-.108.18c0 .066.03.115.092.153.06.035.15.073.27.113.148.049.28.105.395.166.116.062.213.134.293.217.081.082.141.176.185.279a.909.909 0 01.065.352c0 .223-.049.411-.143.568-.097.158-.22.284-.367.383a1.63 1.63 0 01-.492.216 2.17 2.17 0 01-.928.033 2.524 2.524 0 01-.388-.099 1.885 1.885 0 01-.349-.157 1.326 1.326 0 01-.284-.211l.762-.717c.04.047.086.087.141.123a1.2 1.2 0 00.17.091c.06.024.12.045.18.059.06.014.119.021.17.021a.553.553 0 00.27-.056c.066-.038.101-.092.101-.165 0-.058-.028-.11-.085-.157a1.028 1.028 0 00-.317-.143 2.732 2.732 0 01-.344-.136 1.108 1.108 0 01-.279-.188.767.767 0 01-.185-.266.916.916 0 01-.067-.375c0-.181.037-.348.109-.5.072-.153.175-.287.31-.4.133-.112.293-.202.477-.265.185-.063.388-.096.61-.096a2.075 2.075 0 01.992.256c.09.051.167.11.227.176l-.714.702-.009.005zM29.431 44.824h-1.147l-.097-2h-.019l-.895 2h-1.134l-.265-3.472h1.181v1.986h.019l.801-1.986h1.148l.039 1.986h.018l.801-1.986h1.162l-1.612 3.472zM32.47 44.914c-.273 0-.515-.038-.726-.115a1.47 1.47 0 01-.53-.327 1.393 1.393 0 01-.326-.5 1.772 1.772 0 01-.11-.639c0-.288.05-.556.15-.81.098-.25.24-.472.42-.657.18-.186.396-.334.653-.441.256-.108.54-.162.852-.162.277 0 .52.037.73.114a1.391 1.391 0 01.856.827c.074.193.11.406.11.639 0 .288-.048.556-.147.81a1.91 1.91 0 01-.42.657c-.183.186-.4.334-.656.442a2.18 2.18 0 01-.857.162zm.916-1.987a.707.707 0 00-.042-.246.592.592 0 00-.12-.202.575.575 0 00-.198-.134.69.69 0 00-.268-.05.71.71 0 00-.34.08.82.82 0 00-.258.214 1.066 1.066 0 00-.222.653c0 .09.014.171.042.246a.592.592 0 00.12.202.525.525 0 00.199.134c.078.033.168.05.272.05a.721.721 0 00.337-.078.796.796 0 00.256-.211 1.083 1.083 0 00.222-.657zM36.567 44.824l-.468-1.27h-.134l-.213 1.27h-1.076l.603-3.472h1.404c.187 0 .355.02.505.063.15.042.28.106.386.185.106.08.187.184.242.301.056.12.086.256.086.409 0 .288-.067.523-.201.711a1.008 1.008 0 01-.547.383l.665 1.418h-1.254l.002.002zm-.247-1.99a.68.68 0 00.347-.076c.083-.052.124-.131.124-.242 0-.1-.034-.171-.104-.209a.597.597 0 00-.281-.056h-.208l-.102.585h.222l.002-.003zM38.073 44.824l.602-3.472H39.8l-.434 2.5h1.151l-.168.972h-2.276zM41.316 41.352h1.413c.194 0 .386.026.582.08.194.054.37.14.526.258.157.117.284.27.384.458.099.188.15.415.15.683 0 .305-.053.58-.157.826a1.77 1.77 0 01-.437.627 1.94 1.94 0 01-.66.397c-.254.094-.53.141-.829.141h-1.572l.603-3.473-.003.003zm.651 2.496h.363a.877.877 0 00.38-.078.833.833 0 00.442-.488.994.994 0 00.055-.331.816.816 0 00-.04-.252.53.53 0 00-.33-.342.787.787 0 00-.302-.052h-.3l-.27 1.54.002.003zM26.37 40.403l.602-3.473h.594l-.603 3.473h-.593zM29.567 36.93c.12 0 .238.014.356.04.118.026.224.07.319.13a.71.71 0 01.228.234.683.683 0 01.088.355c0 .232-.07.425-.206.575a1.049 1.049 0 01-.542.312v.01c.187.03.34.108.457.237.118.129.178.296.178.502a.971.971 0 01-.109.465.948.948 0 01-.302.336c-.13.09-.282.157-.46.204a2.411 2.411 0 01-.586.068h-1.21l.603-3.473h1.186v.005zm-.948 1.933l-.174 1.03h.594c.106 0 .207-.009.304-.032a.877.877 0 00.26-.101.496.496 0 00.177-.183.551.551 0 00.064-.278.387.387 0 00-.15-.321c-.099-.078-.242-.115-.429-.115h-.646zm.256-1.433l-.164.928h.616c.067 0 .139-.01.215-.026a.641.641 0 00.208-.092.532.532 0 00.154-.166.496.496 0 00.06-.25c0-.142-.053-.243-.156-.304a.766.766 0 00-.393-.09h-.54zM33.647 39.69c-.079.168-.18.312-.303.429a1.299 1.299 0 01-.438.275c-.171.065-.365.098-.584.098-.197 0-.374-.025-.531-.075a1.154 1.154 0 01-.4-.218.957.957 0 01-.251-.34 1.109 1.109 0 01-.088-.45c0-.044 0-.09.005-.135.002-.045.009-.094.018-.144l.38-2.197h.594l-.376 2.172a.837.837 0 00-.014.112c-.002.04-.005.078-.005.113 0 .084.012.164.037.24a.54.54 0 00.328.342.82.82 0 00.312.052.935.935 0 00.395-.075.756.756 0 00.26-.2.878.878 0 00.155-.277c.035-.103.063-.204.083-.307l.377-2.172h.598l-.381 2.197a2.176 2.176 0 01-.171.562v-.003z" fill="#00384D"/><path d="M28.134 19.832c0-7.162 5.707-12.884 12.748-12.884 7.042 0 12.749 5.722 12.749 12.884 0 7.161-5.707 12.966-12.749 12.966-7.041 0-12.748-5.805-12.748-12.966z" fill="url(#paint2_radial_7654_220)"/><path d="M47.1 8.559c-.012-.007-.023-.015-.035-.02.012.008.023.015.035.02z" fill="url(#paint3_radial_7654_220)"/><path d="M28.14 19.83c0 .281.01.563.028.84h.014c-.018-.277-.03-.557-.03-.84 0-3.72 1.902-7.05 4.428-9.348 2.113-1.921 5.306-3.264 8.337-3.264 2.182 0 4.347.34 6.146 1.32a12.664 12.664 0 00-6.165-1.59c-7.046 0-12.757 5.715-12.757 12.881z" fill="url(#paint4_radial_7654_220)"/><path d="M47.377 8.718l.076.045-.023-.014c-.017-.01-.035-.019-.051-.03h-.002z" fill="url(#paint5_radial_7654_220)"/><path d="M38.583 14.804c-.014-.084-.363-.22-.388-.288-.025-.069 1.219-1.381 1.281-1.46.072-.09.058-.229.03-.247-.12-.078-.307-.158-.43-.235-.087-.054-.279-.11-.34-.02-.06.088-.183.222-.243.306-.058.082-.192.256-.233.322-.113.178.067.303.041.556-.007.075-.173.12-.21.184-.048.082-.134.129-.162.244-.032.131-.295.11-.376-.021-.018-.029-.048-.2-.058-.23-.025-.101-.023-.076-.09-.104-.884-.364-2.151-.91-3.029-1.294a99.77 99.77 0 01-1.576-.709c-.026-.011-.245.143-.347.092-.101-.052.056-.643.072-.665.03-.037.452-.314.524-.26.072.054.011.338.037.378.025.042.131.082.247.129 1.034.434 2.646 1.115 3.682 1.55.153.063.469.185.603.24 0 0 .208-.485.358-.736.138-.232.233-.493.371-.723.09-.15.326-.183.51-.16.042.005-2.163-1.392-2.237-1.45-.013-.013-.196.126-.297.06-.102-.066.113-.577.138-.61.023-.03.533-.176.589-.11.055.065-.056.312-.065.326-.034.051 2.706 1.756 2.79 1.8.082.045.544-.591.62-.624.076-.033.446.021.506-.03.053-.047 1.306-1.456 1.36-1.506.027-.046-.208-.157-.201-.18.007-.028.618-.653.667-.655.048 0 1.043.432 1.043.462 0 .03-.205.202-.24.233-.032.028-.24-.05-.295.007-.058.056-1.374 1.51-1.494 1.67-.053.07.113.248.12.311.007.064-.104.285-.083.322.02.035.238.033.282.014.041-.02 0-.157.034-.213a.992.992 0 01.62-.447c.015-.002.133-.058.276-.082a.617.617 0 01.162-.01c.041.003.078-.009.117.008.04.014.079.056.111.087.03.028.093.019.134.044.056.033.081.106.116.153.027.037.101.061.133.1.035.04.04.092.07.144.041.07.076.153.094.268.014.091.077.22.065.305-.005.038-.088.042-.097.078a.8.8 0 01-.2.36c-.167.168-.278.257-.282.278-.017.064.136.155.182.371.04.221-.03.458-.206.564-.143.087-.249.108-.284.131-.043.033-.013.064-.064.101-.173.118-.372.244-.517.357-.164.127-.508.622-.617.747-.108.124-.307.354-.413.481-.028.033-.307-.021-.355.04-.049.061.186.425.265.596.157.343.365.642.513.989.085.2.198.998.212 1.188.007.099-.03.202-.05.303-.05.232-.126.46-.149.695a2.667 2.667 0 01-.3.968c-.09.176-.18.352-.263.532-.104.162-.088.252-.074.296.03.104-.205.7-.27.914-.108.361-.032.488.109.544.057.022.117.036.175.057.143.054.175.171.097.434.178.028.346.061.515.078 1.057-.139 3.975-.648 4.213-.698.573-.117 1.07-.474 1.166-.434.097.04-.078.62-.38.744a4.828 4.828 0 01-.793.226c-.258.049-11.32 1.93-11.37 1.827-.05-.104.164-.484.265-.557.102-.073 3.334-.552 4.405-.775.245-.052.681-.18.818-.218-.01-.07-.46-.113-.49-.254-.069-.336.337-.897.444-1.211a8.14 8.14 0 00.249-.801c.005-.017.053-.643.178-1.073.078-.268.279-.561.385-.76.113-.26.028-.567-.208-.844-.147-.176-.337-.312-.491-.481-.203-.223-.395-.458-.587-.69-.08-.1-.154-.113-.27-.05-.577.312-.916.782-1.318 1.296a3.725 3.725 0 01-.979.86c-.18.108-.358.22-.531.34-.055.038-.145.09-.18.157-.215.433-.573.733-.894 1.067a5.53 5.53 0 00-.533.723c-.025.077.005.176-.034.244-.063.11-.72.852-.84.993-.086.099-.285.223-.386.232-.116.01-.252.163-.344.254-.116.113-1.076 1.299-1.33 1.602-.016.02-.351.504-.476.58-.124.075-.413-.141-.413-.245 0-.103.363-.505.425-.596.328-.482 1.344-1.703 1.475-1.841.037-.05.028-.263.02-.32-.006-.056.047-.166.089-.239.03-.054.157-.171.203-.22.124-.13.37-.489.464-.6.074-.086.688-.654.817-.847.106-.16.233-.277.321-.404.185-.267.314-.561.51-.82.12-.157.31-.281.474-.394.431-.296.773-.664.994-1.15.188-.411.38-.82.6-1.21.144-.25.347-.467.513-.704.113-.16.243-.3.294-.517.064-.274.214-.457.2-.54h-.011z" fill="#fff"/><path d="M27.358 17.99c-5.268 3.272-7.937 6.587-7.3 8.473.993 2.928 10.354 3.576 22.655-.73C55.011 21.425 62 15.05 61.007 12.122c-.628-1.86-4.631-2.799-10.613-2.137a13.627 13.627 0 00-1.61-1.39c19.879-3.14 20.62 10.63-5.11 19.64-25.742 9.013-33.488-2.314-15.896-12.29-.19.662-.33 1.343-.42 2.042" fill="#D4D700"/><path fill-rule="evenodd" clip-rule="evenodd" d="M110.926 9.606c-12.033-7.688-21.785 2.228-14.224 14.466-7.561 12.236 2.19 22.157 14.224 14.467 12.03 7.69 21.784-2.23 14.223-14.467 7.564-12.238-2.19-22.154-14.223-14.466z" fill="#fff"/><path style="mix-blend-mode:multiply" fill-rule="evenodd" clip-rule="evenodd" d="M110.094 34.662h-3.202l-3.26-4.172v4.172h-3.202v-9.829h3.202l3.26 4.182v-4.182h3.202v9.83zm0-10.96h-3.202l-3.26-4.17v4.17h-3.202v-9.825h3.202l.598.766 2.662 3.418v-4.184h3.202v9.827-.003zm11.978 7.96v3h-3.2V29.79l-.323.512-1.914 2.986h-.058l-2.181-3.496v4.872h-3.203v-9.826h3.203l2.237 3.454 2.237-3.454h3.2v6.826l.002-.003zm0-7.96h-3.2v-4.873l-2.237 3.499h-.058l-2.181-3.499v4.872h-3.203v-9.826h3.203l2.237 3.454 2.237-3.454h3.2V23.7h.002z" fill="url(#paint6_linear_7654_220)"/><path d="M106.001 53.74l.363-2.04 3.532-2.522c.263-.19.614-.49.614-.77 0-.313-.164-.547-.582-.547-.505 0-.822.38-.953.936l-2.337-.345c.395-1.718 1.7-2.834 3.533-2.834 1.468 0 3.006.693 3.006 2.365 0 1.46-.989 2.108-1.843 2.688l-1.327.904h2.763l-.374 2.165h-6.395zM117.923 45.644c-3.006 0-4.068 3.046-4.068 5.264 0 1.473.801 3.034 3.147 3.034 2.971 0 4.024-3.045 4.024-5.264 0-1.472-.789-3.034-3.103-3.034zm-.812 6.112c-.515 0-.746-.524-.746-1.172 0-1.148.494-2.799 1.348-2.799.527 0 .725.524.725 1.172 0 1.261-.494 2.799-1.327 2.799zM121.245 53.74l.363-2.04 3.532-2.522c.263-.19.614-.49.614-.77 0-.313-.164-.547-.581-.547-.506 0-.822.38-.954.936l-2.336-.345c.394-1.718 1.699-2.834 3.532-2.834 1.468 0 3.006.693 3.006 2.365 0 1.46-.988 2.108-1.842 2.688l-1.328.904h2.764l-.375 2.165H121.245zM135.098 50.317l.778-4.474h-3.159l-3.532 4.384-.372 2.109h3.673l-.24 1.404h2.304l.243-1.404h1.064l.351-2.02h-1.11zm-2.27 0h-1.36l1.679-2.097h.044l-.363 2.097zM79.324 48.736l-.565-1.441h-.016l-.222 1.441h-.91l.506-2.909h.916l.578 1.517h.016l.235-1.517h.91l-.506 2.91h-.942zM80.862 47.487c0-.965.69-1.735 1.738-1.735.926 0 1.422.547 1.422 1.324 0 .965-.688 1.736-1.74 1.736-.917 0-1.418-.548-1.418-1.325h-.002zm1.66-.871c-.425 0-.688.395-.688.794 0 .29.184.53.528.53.416 0 .684-.387.684-.793 0-.291-.187-.531-.527-.531h.003zM85.708 48.736h-1.044l-.413-2.909h1.007l.129 1.825h.016l.861-1.825h1.078l-1.636 2.91h.002zM86.968 48.736l.506-2.909h1.87l-.139.794h-.99l-.049.28h.947l-.13.739h-.946l-.053.303h1.108l-.138.793h-1.988.002zm1.746-3.139h-.668l.545-.592h.84l-.72.592h.003zM92.97 48.736l.32-1.685h-.024l-.845 1.685h-.658l-.254-1.685h-.02l-.247 1.685h-.873l.506-2.909h1.19l.253 1.595h.02l.744-1.595h1.304l-.505 2.91h-.91zM94.382 48.736l.505-2.909h1.87l-.138.794h-.99l-.05.28h.947l-.129.739h-.947l-.053.303h1.108l-.138.793h-1.988.002zm1.789-3.139h-.674l-.448-.592h.607l.222.29.318-.29h.614l-.64.592zM98.736 46.696a.551.551 0 00-.432-.186c-.15 0-.296.066-.296.202 0 .108.107.157.303.223.492.165.787.411.787.85 0 .75-.716 1.036-1.286 1.036-.448 0-.926-.153-1.196-.42l.64-.602c.124.148.383.247.554.247.187 0 .312-.066.312-.186 0-.098-.081-.169-.335-.25-.413-.137-.737-.322-.737-.81 0-.604.513-1.058 1.26-1.058.41 0 .818.144 1.024.362l-.598.587v.005zM101.04 46.63l-.365 2.109h-.937l.362-2.109h-.722l.14-.8h2.36l-.141.8h-.699.002zM101.751 47.487c0-.965.69-1.735 1.738-1.735.926 0 1.422.547 1.422 1.324 0 .965-.688 1.736-1.74 1.736-.917 0-1.418-.548-1.418-1.325h-.002zm1.66-.871c-.425 0-.688.395-.688.794 0 .29.185.53.529.53.415 0 .683-.387.683-.793 0-.291-.187-.531-.527-.531h.003zM78.493 53.747l-.58-1.477h-.016l-.228 1.477h-.93l.517-2.98h.94l.59 1.555h.016l.24-1.555h.931l-.517 2.98h-.965.002zM82.055 53.747l-.067-.456h-.95l-.245.456h-1.07l1.801-2.98h1.01l.512 2.98h-.993.002zm-.23-1.965l-.418.765h.505l-.088-.765zM87.098 53.747l.328-1.726H87.4l-.866 1.726h-.674l-.26-1.726h-.021l-.252 1.726h-.894l.518-2.98h1.22l.257 1.635h.02l.763-1.635h1.337l-.518 2.98h-.932zM88.725 52.467c0-.988.709-1.777 1.78-1.777.95 0 1.457.559 1.457 1.355 0 .988-.704 1.777-1.785 1.777-.94 0-1.452-.559-1.452-1.355zm1.702-.892c-.434 0-.704.404-.704.813 0 .298.191.542.542.542.427 0 .7-.397.7-.812 0-.299-.19-.543-.538-.543zM93.74 53.747l-.402-1.09h-.115l-.183 1.09h-.923l.517-2.98h1.205c.642 0 1.048.298 1.048.825 0 .488-.245.821-.642.939l.57 1.216H93.74zm.194-1.982c0-.171-.13-.227-.33-.227h-.178l-.088.5h.19c.251 0 .406-.085.406-.275v.002zM97.32 53.747l-.066-.456h-.952l-.244.456h-1.07l1.802-2.98h1.008l.513 2.98h-.993.002zm-.23-1.965l-.418.765h.505l-.087-.765zM99.948 53.747h-1.07l-.422-2.98h1.03l.132 1.87h.016l.882-1.87h1.106l-1.677 2.98h.003zM101.363 53.747l.517-2.98h1.916l-.14.813h-1.014l-.048.286h.969l-.131.759h-.97l-.053.312h1.133l-.14.813h-2.037l-.002-.003zm1.833-3.217h-.69l-.46-.605h.621l.229.295.328-.295h.63l-.653.605h-.005z" fill="#fff"/><path d="M149.169.704l-10.401 58.592H.828L11.239.704h137.933M150 0H10.66l-.105.58L.148 59.171 0 60h139.348l.104-.58 10.4-58.591L150 0z" fill="#C2CACE"/><defs><radialGradient id="paint2_radial_7654_220" cx="0" cy="0" r="1" gradientUnits="userSpaceOnUse" gradientTransform="matrix(19.5246 0 0 19.8576 33.324 11.505)"><stop stop-color="#0092C6"/><stop offset=".14" stop-color="#008DC0"/><stop offset=".31" stop-color="#0081AF"/><stop offset=".51" stop-color="#006C94"/><stop offset=".73" stop-color="#00506E"/><stop offset=".96" stop-color="#002B3F"/><stop offset="1" stop-color="#002536"/></radialGradient><radialGradient id="paint3_radial_7654_220" cx="0" cy="0" r="1" gradientUnits="userSpaceOnUse" gradientTransform="matrix(16.6323 0 0 16.9179 34.154 9.106)"><stop stop-color="#85CFE8"/><stop offset="1" stop-color="#85CFE8" stop-opacity="0"/></radialGradient><radialGradient id="paint4_radial_7654_220" cx="0" cy="0" r="1" gradientUnits="userSpaceOnUse" gradientTransform="matrix(16.6341 0 0 16.9178 34.153 9.106)"><stop stop-color="#85CFE8"/><stop offset="1" stop-color="#85CFE8" stop-opacity="0"/></radialGradient><radialGradient id="paint5_radial_7654_220" cx="0" cy="0" r="1" gradientUnits="userSpaceOnUse" gradientTransform="matrix(16.6339 0 0 16.9177 34.153 9.106)"><stop stop-color="#85CFE8"/><stop offset="1" stop-color="#85CFE8" stop-opacity="0"/></radialGradient><linearGradient id="paint0_linear_7654_220" x1="110.06" y1="59.3" x2="110.06" y2=".7" gradientUnits="userSpaceOnUse"><stop stop-color="#003A80"/><stop offset=".18" stop-color="#004494"/><stop offset=".87" stop-color="#1BBBE9"/></linearGradient><linearGradient id="paint1_linear_7654_220" x1="75.32" y1="17.14" x2="145.07" y2="42.1" gradientUnits="userSpaceOnUse"><stop stop-color="#003A80"/><stop offset=".03" stop-color="#003A80" stop-opacity=".8"/><stop offset=".08" stop-color="#003A80" stop-opacity=".46"/><stop offset=".13" stop-color="#003A80" stop-opacity=".21"/><stop offset=".17" stop-color="#003A80" stop-opacity=".06"/><stop offset=".2" stop-color="#003A80" stop-opacity="0"/></linearGradient><linearGradient id="paint6_linear_7654_220" x1="100.73" y1="34.97" x2="122.13" y2="13.93" gradientUnits="userSpaceOnUse"><stop stop-color="#172983"/><stop offset=".79" stop-color="#1BBBE9"/></linearGradient></defs></svg>