<svg width="40" height="40" viewBox="0 0 40 40" fill="none" xmlns="http://www.w3.org/2000/svg"><path d="M26.666 13.333a6.667 6.667 0 01-13.333 0m-7.278-.997l-1.167 14c-.25 3.007-.376 4.51.132 5.671a5 5 0 002.2 2.39C8.333 35 9.842 35 12.86 35h14.278c3.018 0 4.527 0 5.641-.603a5 5 0 002.2-2.39c.508-1.16.382-2.664.132-5.671l-1.167-14c-.216-2.588-.324-3.882-.897-4.861A5 5 0 0030.89 5.49C29.867 5 28.568 5 25.972 5H14.027c-2.597 0-3.895 0-4.918.49A5 5 0 006.95 7.475c-.573.98-.68 2.273-.896 4.86z" stroke="#000" stroke-width="2" stroke-linecap="round" stroke-linejoin="round"/></svg>